<svg width="840" height="289" viewBox="0 0 840 289" fill="none" xmlns="http://www.w3.org/2000/svg">
<g filter="url(#filter0_i_37_1553)">
<path d="M62.6147 288.187H71.7665C73.7005 288.187 75.2683 286.596 75.2683 284.634V276.986C75.2683 275.024 73.7005 273.433 71.7665 273.433H62.6147C60.6807 273.433 59.1129 275.024 59.1129 276.986V284.634C59.1129 286.596 60.6807 288.187 62.6147 288.187Z" fill="#C37FDB"/>
<path d="M33.2405 288.187H42.3922C44.3262 288.187 45.894 286.596 45.894 284.634V276.986C45.894 275.024 44.3262 273.433 42.3922 273.433H33.2405C31.3065 273.433 29.7386 275.024 29.7386 276.986V284.634C29.7386 286.596 31.3065 288.187 33.2405 288.187Z" fill="#C37FDB"/>
<path d="M3.00628 246.44H10.8627C12.523 246.44 13.8689 245.074 13.8689 243.39L13.8689 236.825C13.8689 235.14 12.523 233.774 10.8627 233.774H3.00628C1.34601 233.774 8.4877e-05 235.14 8.4877e-05 236.825L8.4877e-05 243.39C8.4877e-05 245.074 1.34601 246.44 3.00628 246.44Z" fill="#C37FDB"/>
<path d="M839.81 3.96891V13.2575C839.81 14.1998 839.441 15.1036 838.784 15.77C838.128 16.4363 837.237 16.8106 836.308 16.8106H828.771C827.842 16.8106 826.952 16.4363 826.295 15.77C825.638 15.1036 825.269 14.1998 825.269 13.2575V3.96891C825.272 3.0281 825.642 2.12662 826.298 1.46219C826.955 0.797766 827.844 0.42462 828.771 0.424623L836.308 0.424623C837.236 0.423842 838.126 0.796736 838.782 1.46133C839.439 2.12593 839.809 3.02786 839.81 3.96891Z" fill="#C37FDB"/>
<path d="M839.81 33.7731V43.0617C839.81 43.5294 839.72 43.9926 839.543 44.4247C839.367 44.8567 839.108 45.249 838.781 45.5792C838.455 45.9094 838.067 46.1708 837.641 46.3486C837.214 46.5263 836.758 46.6168 836.297 46.6148H828.76C827.835 46.6086 826.95 46.2316 826.298 45.5659C825.647 44.9003 825.281 44 825.281 43.0617V33.7731C825.283 32.8364 825.65 31.9384 826.301 31.2747C826.953 30.6109 827.836 30.2351 828.76 30.2289H836.297C836.757 30.2269 837.213 30.3172 837.639 30.4943C838.065 30.6715 838.452 30.9322 838.778 31.2614C839.104 31.5906 839.364 31.9819 839.541 32.4129C839.718 32.8439 839.809 33.3062 839.81 33.7731Z" fill="#C37FDB"/>
<path d="M839.81 63.5773V72.8659C839.81 73.8074 839.441 74.7105 838.785 75.3763C838.129 76.042 837.239 76.4161 836.311 76.4161H828.774C827.845 76.4161 826.955 76.0417 826.298 75.3754C825.641 74.7091 825.272 73.8054 825.272 72.863V63.5744C825.275 62.6343 825.644 61.7336 826.3 61.0697C826.956 60.4059 827.845 60.033 828.771 60.033H836.308C837.236 60.0322 838.126 60.4051 838.782 61.0697C839.439 61.7343 839.809 62.6363 839.81 63.5773Z" fill="#C37FDB"/>
</g>
<defs>
<filter id="filter0_i_37_1553" x="0" y="0.424622" width="839.81" height="291.762" filterUnits="userSpaceOnUse" color-interpolation-filters="sRGB">
<feFlood flood-opacity="0" result="BackgroundImageFix"/>
<feBlend mode="normal" in="SourceGraphic" in2="BackgroundImageFix" result="shape"/>
<feColorMatrix in="SourceAlpha" type="matrix" values="0 0 0 0 0 0 0 0 0 0 0 0 0 0 0 0 0 0 127 0" result="hardAlpha"/>
<feOffset dy="4"/>
<feGaussianBlur stdDeviation="2.5"/>
<feComposite in2="hardAlpha" operator="arithmetic" k2="-1" k3="1"/>
<feColorMatrix type="matrix" values="0 0 0 0 0 0 0 0 0 0 0 0 0 0 0 0 0 0 0.43 0"/>
<feBlend mode="normal" in2="shape" result="effect1_innerShadow_37_1553"/>
</filter>
</defs>
</svg>
