<svg width="230" height="304" viewBox="0 0 230 304" fill="none" xmlns="http://www.w3.org/2000/svg">
<path d="M202.178 16.3177C205.17 27.0211 197.862 38.0539 189.809 40.3717C181.756 42.6894 176.01 35.4156 173.018 24.7092C170.027 14.0029 174.126 3.44655 182.179 1.12881C190.232 -1.18894 199.184 5.6084 202.178 16.3177Z" fill="#F09959"/>
<g filter="url(#filter0_d_37_1512)">
<path d="M157.031 223.768C157.031 223.768 177.668 256.29 180.457 257.702C183.245 259.113 190.211 259.466 187.597 264.761C184.982 270.055 183.938 290.921 181.509 291.98C179.08 293.038 158.167 295.509 161.301 291.98C164.435 288.45 166.365 290.215 167.948 283.85C169.531 277.485 171.754 265.47 168.792 262.993C165.829 260.516 147.705 238.265 147.705 238.265L157.031 223.768Z" fill="#F09959"/>
</g>
<g filter="url(#filter1_d_37_1512)">
<path d="M53.1646 237.733C53.1646 237.733 28.0807 279.685 23.4338 283.456C18.7869 287.226 3.45768 292.868 16.0011 293.824C28.5445 294.78 34.5828 289.582 42.4793 287.226C50.3759 284.87 60.1335 283.456 56.4171 277.326C52.7008 271.196 54.2429 257.822 62.2554 249.339C70.2679 240.857 53.1646 237.733 53.1646 237.733Z" fill="#F09959"/>
</g>
<g filter="url(#filter2_d_37_1512)">
<path d="M181.181 140.455C181.181 140.455 119.082 138.808 94.4619 159.309C80.0603 181.463 45.2217 246.828 42.5112 254.019C44.3694 255.904 54.8228 259.313 59.4696 258.837C73.1726 242.257 91.2876 227.924 98.4913 214.917C107.368 198.893 110.104 190.878 124.506 189.463C138.907 188.049 171.427 183.337 181.181 183.337C190.936 183.337 181.181 140.455 181.181 140.455Z" fill="#75A1DE"/>
</g>
<g filter="url(#filter3_d_37_1512)">
<path d="M216.559 136.14L180.457 142.464C180.457 142.464 132.478 142.911 110.548 147.056C90.5948 150.826 87.6466 173.822 110.548 205.502C123.552 223.497 134.547 237.857 157.031 254.034C162.751 249.775 164.939 248.151 166.519 237.91C164.893 235.645 160.681 221.477 159.373 218.703C146.934 192.325 130.335 182.734 130.095 180.136C132.883 175.542 203.926 204.09 218.049 187.299C231.546 171.26 216.559 136.14 216.559 136.14Z" fill="#75A1DE"/>
</g>
<g filter="url(#filter4_d_37_1512)">
<path d="M218.058 53.2075C208.55 51.8516 198.868 53.6869 189.809 60.3402C181.895 68.5258 172.94 82.0234 173.488 104.292C174.184 132.573 169.175 134.387 174.401 142.164C196.198 151.282 233.474 190.534 224.697 148.47C218.339 118.01 238.637 95.3064 222.264 61.5196C220.931 58.7695 219.264 56.1017 218.058 53.2075Z" fill="#F37168"/>
</g>
<g filter="url(#filter5_d_37_1512)">
<path d="M173.482 114.934C173.059 129.678 171.007 134.02 172.575 138.644C181.46 139.564 197.714 143.17 201.775 148.938C206.413 155.535 211.069 156.48 208.901 151.609C206.732 146.738 201.001 139.826 209.828 116.101C218.655 92.3768 222.836 76.3497 214.177 59.8519L173.482 114.934Z" fill="#D54A41"/>
</g>
<g filter="url(#filter6_d_37_1512)">
<path d="M218.058 53.2075C212.205 39.1422 210.767 23.3415 210.767 23.3415L195.435 27.9358C195.435 27.9358 204.146 47.7337 195.786 54.8017C193.702 56.5429 191.706 58.3915 189.809 60.3402C198.868 53.6869 208.55 51.8516 218.058 53.2075Z" fill="#F09959"/>
</g>
<g filter="url(#filter7_d_37_1512)">
<path d="M211.228 27.0799C210.321 26.2593 209.199 25.2387 207.99 24.168L195.479 27.9211L195.453 27.9917C195.743 28.6918 198.931 36.2274 199.357 43.4836C203.082 41.1923 207.164 37.451 211.823 30.9183C211.585 29.4683 211.385 28.177 211.228 27.0799Z" fill="#E38540"/>
</g>
<g filter="url(#filter8_d_37_1512)">
<path d="M207.283 57.6312C191.493 63.2197 193.244 80.1086 178.715 104.986C171.178 117.869 164.22 117.675 164.22 117.675C151.195 117.607 138.184 116.771 125.254 115.172C111.893 113.516 111.049 117.551 120.326 120.919C139.061 127.717 158.507 135.037 174.184 133.273C189.861 131.508 216.678 90.9179 218.058 80.3528C219.971 65.7463 215.235 54.8076 207.283 57.6312Z" fill="#F09959"/>
</g>
<g filter="url(#filter9_d_37_1512)">
<path d="M54.8836 273.09C38.2383 281.35 29.2779 286.085 23.9411 285.632C22.683 285.526 21.6394 285.397 20.7523 285.256C14.8155 288.818 5.33905 293.024 16.0011 293.824C28.5445 294.768 34.5828 289.582 42.4793 287.226C50.3759 284.87 60.1335 283.456 56.4171 277.326C55.6633 276.017 55.1441 274.583 54.8836 273.09Z" fill="#D54A41"/>
</g>
<g filter="url(#filter10_d_37_1512)">
<path d="M182.271 258.393C181.863 271.764 180.051 285.015 171.992 287.512C170.12 288.112 168.142 288.292 166.194 288.038C164.925 289.629 163.379 289.647 161.301 291.985C158.167 295.515 179.071 293.047 181.509 291.985C183.947 290.924 184.988 270.07 187.597 264.767C189.745 260.416 185.425 259.402 182.271 258.393Z" fill="#D54A41"/>
</g>
<defs>
<filter id="filter0_d_37_1512" x="136.705" y="221.768" width="52.468" height="82.0432" filterUnits="userSpaceOnUse" color-interpolation-filters="sRGB">
<feFlood flood-opacity="0" result="BackgroundImageFix"/>
<feColorMatrix in="SourceAlpha" type="matrix" values="0 0 0 0 0 0 0 0 0 0 0 0 0 0 0 0 0 0 127 0" result="hardAlpha"/>
<feOffset dx="-5" dy="4"/>
<feGaussianBlur stdDeviation="3"/>
<feComposite in2="hardAlpha" operator="out"/>
<feColorMatrix type="matrix" values="0 0 0 0 0 0 0 0 0 0 0 0 0 0 0 0 0 0 0.72 0"/>
<feBlend mode="normal" in2="BackgroundImageFix" result="effect1_dropShadow_37_1512"/>
<feBlend mode="normal" in="SourceGraphic" in2="effect1_dropShadow_37_1512" result="shape"/>
</filter>
<filter id="filter1_d_37_1512" x="0.173828" y="235.733" width="65.2183" height="68.2067" filterUnits="userSpaceOnUse" color-interpolation-filters="sRGB">
<feFlood flood-opacity="0" result="BackgroundImageFix"/>
<feColorMatrix in="SourceAlpha" type="matrix" values="0 0 0 0 0 0 0 0 0 0 0 0 0 0 0 0 0 0 127 0" result="hardAlpha"/>
<feOffset dx="-5" dy="4"/>
<feGaussianBlur stdDeviation="3"/>
<feComposite in2="hardAlpha" operator="out"/>
<feColorMatrix type="matrix" values="0 0 0 0 0 0 0 0 0 0 0 0 0 0 0 0 0 0 0.72 0"/>
<feBlend mode="normal" in2="BackgroundImageFix" result="effect1_dropShadow_37_1512"/>
<feBlend mode="normal" in="SourceGraphic" in2="effect1_dropShadow_37_1512" result="shape"/>
</filter>
<filter id="filter2_d_37_1512" x="31.5112" y="138.424" width="155.006" height="130.458" filterUnits="userSpaceOnUse" color-interpolation-filters="sRGB">
<feFlood flood-opacity="0" result="BackgroundImageFix"/>
<feColorMatrix in="SourceAlpha" type="matrix" values="0 0 0 0 0 0 0 0 0 0 0 0 0 0 0 0 0 0 127 0" result="hardAlpha"/>
<feOffset dx="-5" dy="4"/>
<feGaussianBlur stdDeviation="3"/>
<feComposite in2="hardAlpha" operator="out"/>
<feColorMatrix type="matrix" values="0 0 0 0 0 0 0 0 0 0 0 0 0 0 0 0 0 0 0.72 0"/>
<feBlend mode="normal" in2="BackgroundImageFix" result="effect1_dropShadow_37_1512"/>
<feBlend mode="normal" in="SourceGraphic" in2="effect1_dropShadow_37_1512" result="shape"/>
</filter>
<filter id="filter3_d_37_1512" x="83.4585" y="134.14" width="141.226" height="129.893" filterUnits="userSpaceOnUse" color-interpolation-filters="sRGB">
<feFlood flood-opacity="0" result="BackgroundImageFix"/>
<feColorMatrix in="SourceAlpha" type="matrix" values="0 0 0 0 0 0 0 0 0 0 0 0 0 0 0 0 0 0 127 0" result="hardAlpha"/>
<feOffset dx="-5" dy="4"/>
<feGaussianBlur stdDeviation="3"/>
<feComposite in2="hardAlpha" operator="out"/>
<feColorMatrix type="matrix" values="0 0 0 0 0 0 0 0 0 0 0 0 0 0 0 0 0 0 0.72 0"/>
<feBlend mode="normal" in2="BackgroundImageFix" result="effect1_dropShadow_37_1512"/>
<feBlend mode="normal" in="SourceGraphic" in2="effect1_dropShadow_37_1512" result="shape"/>
</filter>
<filter id="filter4_d_37_1512" x="160.991" y="50.7899" width="68.8174" height="126.768" filterUnits="userSpaceOnUse" color-interpolation-filters="sRGB">
<feFlood flood-opacity="0" result="BackgroundImageFix"/>
<feColorMatrix in="SourceAlpha" type="matrix" values="0 0 0 0 0 0 0 0 0 0 0 0 0 0 0 0 0 0 127 0" result="hardAlpha"/>
<feOffset dx="-5" dy="4"/>
<feGaussianBlur stdDeviation="3"/>
<feComposite in2="hardAlpha" operator="out"/>
<feColorMatrix type="matrix" values="0 0 0 0 0 0 0 0 0 0 0 0 0 0 0 0 0 0 0.72 0"/>
<feBlend mode="normal" in2="BackgroundImageFix" result="effect1_dropShadow_37_1512"/>
<feBlend mode="normal" in="SourceGraphic" in2="effect1_dropShadow_37_1512" result="shape"/>
</filter>
<filter id="filter5_d_37_1512" x="160.993" y="57.8519" width="58.9429" height="106.829" filterUnits="userSpaceOnUse" color-interpolation-filters="sRGB">
<feFlood flood-opacity="0" result="BackgroundImageFix"/>
<feColorMatrix in="SourceAlpha" type="matrix" values="0 0 0 0 0 0 0 0 0 0 0 0 0 0 0 0 0 0 127 0" result="hardAlpha"/>
<feOffset dx="-5" dy="4"/>
<feGaussianBlur stdDeviation="3"/>
<feComposite in2="hardAlpha" operator="out"/>
<feColorMatrix type="matrix" values="0 0 0 0 0 0 0 0 0 0 0 0 0 0 0 0 0 0 0.72 0"/>
<feBlend mode="normal" in2="BackgroundImageFix" result="effect1_dropShadow_37_1512"/>
<feBlend mode="normal" in="SourceGraphic" in2="effect1_dropShadow_37_1512" result="shape"/>
</filter>
<filter id="filter6_d_37_1512" x="178.809" y="21.3415" width="40.2495" height="48.9987" filterUnits="userSpaceOnUse" color-interpolation-filters="sRGB">
<feFlood flood-opacity="0" result="BackgroundImageFix"/>
<feColorMatrix in="SourceAlpha" type="matrix" values="0 0 0 0 0 0 0 0 0 0 0 0 0 0 0 0 0 0 127 0" result="hardAlpha"/>
<feOffset dx="-5" dy="4"/>
<feGaussianBlur stdDeviation="3"/>
<feComposite in2="hardAlpha" operator="out"/>
<feColorMatrix type="matrix" values="0 0 0 0 0 0 0 0 0 0 0 0 0 0 0 0 0 0 0.72 0"/>
<feBlend mode="normal" in2="BackgroundImageFix" result="effect1_dropShadow_37_1512"/>
<feBlend mode="normal" in="SourceGraphic" in2="effect1_dropShadow_37_1512" result="shape"/>
</filter>
<filter id="filter7_d_37_1512" x="184.453" y="22.168" width="28.3699" height="31.3156" filterUnits="userSpaceOnUse" color-interpolation-filters="sRGB">
<feFlood flood-opacity="0" result="BackgroundImageFix"/>
<feColorMatrix in="SourceAlpha" type="matrix" values="0 0 0 0 0 0 0 0 0 0 0 0 0 0 0 0 0 0 127 0" result="hardAlpha"/>
<feOffset dx="-5" dy="4"/>
<feGaussianBlur stdDeviation="3"/>
<feComposite in2="hardAlpha" operator="out"/>
<feColorMatrix type="matrix" values="0 0 0 0 0 0 0 0 0 0 0 0 0 0 0 0 0 0 0.72 0"/>
<feBlend mode="normal" in2="BackgroundImageFix" result="effect1_dropShadow_37_1512"/>
<feBlend mode="normal" in="SourceGraphic" in2="effect1_dropShadow_37_1512" result="shape"/>
</filter>
<filter id="filter8_d_37_1512" x="103.162" y="55.1852" width="116.32" height="88.3542" filterUnits="userSpaceOnUse" color-interpolation-filters="sRGB">
<feFlood flood-opacity="0" result="BackgroundImageFix"/>
<feColorMatrix in="SourceAlpha" type="matrix" values="0 0 0 0 0 0 0 0 0 0 0 0 0 0 0 0 0 0 127 0" result="hardAlpha"/>
<feOffset dx="-5" dy="4"/>
<feGaussianBlur stdDeviation="3"/>
<feComposite in2="hardAlpha" operator="out"/>
<feColorMatrix type="matrix" values="0 0 0 0 0 0 0 0 0 0 0 0 0 0 0 0 0 0 0.72 0"/>
<feBlend mode="normal" in2="BackgroundImageFix" result="effect1_dropShadow_37_1512"/>
<feBlend mode="normal" in="SourceGraphic" in2="effect1_dropShadow_37_1512" result="shape"/>
</filter>
<filter id="filter9_d_37_1512" x="0.173828" y="271.09" width="58.0579" height="32.8468" filterUnits="userSpaceOnUse" color-interpolation-filters="sRGB">
<feFlood flood-opacity="0" result="BackgroundImageFix"/>
<feColorMatrix in="SourceAlpha" type="matrix" values="0 0 0 0 0 0 0 0 0 0 0 0 0 0 0 0 0 0 127 0" result="hardAlpha"/>
<feOffset dx="-5" dy="4"/>
<feGaussianBlur stdDeviation="3"/>
<feComposite in2="hardAlpha" operator="out"/>
<feColorMatrix type="matrix" values="0 0 0 0 0 0 0 0 0 0 0 0 0 0 0 0 0 0 0.72 0"/>
<feBlend mode="normal" in2="BackgroundImageFix" result="effect1_dropShadow_37_1512"/>
<feBlend mode="normal" in="SourceGraphic" in2="effect1_dropShadow_37_1512" result="shape"/>
</filter>
<filter id="filter10_d_37_1512" x="149.982" y="256.393" width="39.1914" height="47.4249" filterUnits="userSpaceOnUse" color-interpolation-filters="sRGB">
<feFlood flood-opacity="0" result="BackgroundImageFix"/>
<feColorMatrix in="SourceAlpha" type="matrix" values="0 0 0 0 0 0 0 0 0 0 0 0 0 0 0 0 0 0 127 0" result="hardAlpha"/>
<feOffset dx="-5" dy="4"/>
<feGaussianBlur stdDeviation="3"/>
<feComposite in2="hardAlpha" operator="out"/>
<feColorMatrix type="matrix" values="0 0 0 0 0 0 0 0 0 0 0 0 0 0 0 0 0 0 0.72 0"/>
<feBlend mode="normal" in2="BackgroundImageFix" result="effect1_dropShadow_37_1512"/>
<feBlend mode="normal" in="SourceGraphic" in2="effect1_dropShadow_37_1512" result="shape"/>
</filter>
</defs>
</svg>
