<svg width="786" height="471" viewBox="0 0 786 471" fill="none" xmlns="http://www.w3.org/2000/svg">
<g filter="url(#filter0_d_37_1508)">
<path d="M626.424 33.6444H626.34C626.087 33.6317 625.841 33.5633 625.617 33.4439C625.393 33.3245 625.198 33.1571 625.044 32.9532L614.46 18.9467C614.192 18.5745 614.079 18.1108 614.143 17.6546C614.208 17.1984 614.446 16.7861 614.807 16.5056C615.167 16.2252 615.621 16.099 616.072 16.1539C616.523 16.2088 616.935 16.4406 617.22 16.7996L626.554 29.1531L650.925 2.66073C651.08 2.48902 651.268 2.35022 651.476 2.25234C651.685 2.15446 651.91 2.09944 652.14 2.09045C652.369 2.08147 652.598 2.1187 652.813 2.2C653.029 2.2813 653.226 2.40505 653.394 2.56412C653.562 2.72318 653.697 2.91441 653.791 3.12676C653.886 3.33911 653.938 3.56837 653.945 3.80132C653.952 4.03426 653.913 4.26628 653.831 4.48398C653.749 4.70167 653.626 4.90073 653.467 5.06966L627.697 33.0856C627.534 33.2623 627.336 33.4031 627.117 33.4992C626.899 33.5954 626.662 33.6448 626.424 33.6444Z" fill="#F37168"/>
</g>
<g filter="url(#filter1_d_37_1508)">
<path d="M750.838 428.226C690.541 425.235 485.458 430.303 423.083 432.276C360.708 434.25 288.306 429.67 250.696 422.935C213.086 416.199 -4.30893 423.523 5.55592 441.621C15.4208 459.719 102.416 449.721 201.07 457.001C299.724 464.281 521.598 456.092 571.644 457.001C621.69 457.91 667.597 455.183 732.082 451.542C796.567 447.9 785.786 429.959 750.838 428.226Z" fill="#390F48"/>
</g>
<defs>
<filter id="filter0_d_37_1508" x="612.126" y="0.0891418" width="47.8203" height="39.5553" filterUnits="userSpaceOnUse" color-interpolation-filters="sRGB">
<feFlood flood-opacity="0" result="BackgroundImageFix"/>
<feColorMatrix in="SourceAlpha" type="matrix" values="0 0 0 0 0 0 0 0 0 0 0 0 0 0 0 0 0 0 127 0" result="hardAlpha"/>
<feOffset dx="2" dy="2"/>
<feGaussianBlur stdDeviation="2"/>
<feComposite in2="hardAlpha" operator="out"/>
<feColorMatrix type="matrix" values="0 0 0 0 0 0 0 0 0 0 0 0 0 0 0 0 0 0 0.47 0"/>
<feBlend mode="normal" in2="BackgroundImageFix" result="effect1_dropShadow_37_1508"/>
<feBlend mode="normal" in="SourceGraphic" in2="effect1_dropShadow_37_1508" result="shape"/>
</filter>
<filter id="filter1_d_37_1508" x="0.230469" y="418.467" width="785.577" height="51.5762" filterUnits="userSpaceOnUse" color-interpolation-filters="sRGB">
<feFlood flood-opacity="0" result="BackgroundImageFix"/>
<feColorMatrix in="SourceAlpha" type="matrix" values="0 0 0 0 0 0 0 0 0 0 0 0 0 0 0 0 0 0 127 0" result="hardAlpha"/>
<feOffset dx="1" dy="4"/>
<feGaussianBlur stdDeviation="3"/>
<feComposite in2="hardAlpha" operator="out"/>
<feColorMatrix type="matrix" values="0 0 0 0 0 0 0 0 0 0 0 0 0 0 0 0 0 0 0.52 0"/>
<feBlend mode="normal" in2="BackgroundImageFix" result="effect1_dropShadow_37_1508"/>
<feBlend mode="normal" in="SourceGraphic" in2="effect1_dropShadow_37_1508" result="shape"/>
</filter>
</defs>
</svg>
