<svg width="37" height="37" viewBox="0 0 37 37" fill="none" xmlns="http://www.w3.org/2000/svg">
<g opacity="0.8" filter="url(#filter0_i_37_1506)">
<path d="M25.8683 36.3448H11.1391C8.40506 36.3409 5.78416 35.237 3.85117 33.2751C1.91818 31.3133 0.830948 28.6537 0.827881 25.8796V10.9378C0.83095 8.16401 1.91831 5.50471 3.85138 3.54334C5.78446 1.58196 8.40533 0.4787 11.1391 0.475586H25.8683C28.6021 0.4787 31.223 1.58196 33.1561 3.54334C35.0891 5.50471 36.1765 8.16401 36.1796 10.9378V25.8796C36.1765 28.6537 35.0893 31.3133 33.1563 33.2751C31.2233 35.237 28.6023 36.3409 25.8683 36.3448ZM11.1391 4.59341C9.48145 4.59574 7.89238 5.26492 6.72024 6.45422C5.5481 7.64352 4.8886 9.25588 4.8863 10.9378V25.8796C4.88783 27.562 5.54703 29.1752 6.71925 30.3651C7.89147 31.555 9.48095 32.2246 11.1391 32.227H25.8683C27.5264 32.2246 29.116 31.555 30.2882 30.3651C31.4604 29.1752 32.1196 27.562 32.1212 25.8796V10.9378C32.1189 9.25588 31.4593 7.64352 30.2872 6.45422C29.1151 5.26492 27.5259 4.59574 25.8683 4.59341H11.1391Z" fill="#C37FDB"/>
</g>
<defs>
<filter id="filter0_i_37_1506" x="0.827881" y="0.475586" width="35.3518" height="39.8692" filterUnits="userSpaceOnUse" color-interpolation-filters="sRGB">
<feFlood flood-opacity="0" result="BackgroundImageFix"/>
<feBlend mode="normal" in="SourceGraphic" in2="BackgroundImageFix" result="shape"/>
<feColorMatrix in="SourceAlpha" type="matrix" values="0 0 0 0 0 0 0 0 0 0 0 0 0 0 0 0 0 0 127 0" result="hardAlpha"/>
<feOffset dy="4"/>
<feGaussianBlur stdDeviation="2"/>
<feComposite in2="hardAlpha" operator="arithmetic" k2="-1" k3="1"/>
<feColorMatrix type="matrix" values="0 0 0 0 0 0 0 0 0 0 0 0 0 0 0 0 0 0 0.49 0"/>
<feBlend mode="normal" in2="shape" result="effect1_innerShadow_37_1506"/>
</filter>
</defs>
</svg>
