<svg width="147" height="182" viewBox="0 0 147 182" fill="none" xmlns="http://www.w3.org/2000/svg">
<g filter="url(#filter0_d_37_1540)">
<path d="M63.4177 43.0357C72.4447 51.4008 68.5197 59.7629 61.8465 75.2989C55.1733 90.8348 53.9963 148.184 53.9963 148.184L59.5042 147.387C59.5042 147.387 58.7186 88.4406 66.1716 72.5105C73.6246 56.5804 76.7699 48.6124 83.4431 53.7891C90.1163 58.9658 63.4177 43.0357 63.4177 43.0357Z" fill="#74B570"/>
<path d="M58.4489 32.2058C59.5447 27.2497 66.0556 21.8848 74.7638 17.3376C73.468 24.6467 69.3168 36.6002 73.6042 39.0532C79.4019 42.3592 74.1695 25.6703 76.4045 16.4963C84.9945 12.2897 94.0974 9.26013 103.474 7.48712L103.439 7.58715C98.3344 20.7318 91.6613 25.9085 94.4094 27.8998C96.4763 29.3998 103.21 14.2168 112.092 6.42826C118.76 6.06647 124.413 6.98416 127.746 9.66369C132.909 13.8109 136.373 17.4905 131.181 30.1175C128.216 32.2706 124.372 33.8118 119.908 34.2648C108.133 35.4589 102.636 35.8589 110.881 39.8532C114.916 41.8033 121.682 39.7415 127.17 38.4885C125.39 41.8151 123.201 45.58 120.543 49.8713C118.964 52.4394 117.117 54.8277 115.035 56.9952C111.24 57.7334 107.93 57.7422 106.179 56.9804C100.671 54.5892 86.5506 47.0212 83.0168 50.2154C79.5614 53.3362 109.191 55.3098 107.135 63.2366C92.7744 71.6311 76.3407 67.6485 73.4361 59.9276C69.5603 49.5625 55.1558 47.1271 58.4489 32.2058Z" fill="#9CD499"/>
<path d="M88.1481 88.8407C72.4449 76.8901 56.3505 88.0436 48.109 100.788C39.8675 113.533 45.7522 142.211 45.7522 142.211C45.7522 142.211 48.8917 142.211 48.8917 141.016C48.8917 139.822 40.2559 107.162 60.6697 92.4231C73.4392 83.2051 82.6519 87.6435 83.8288 92.0261C85.0058 96.4086 78.7268 104.38 78.7268 104.38L88.1481 88.8407Z" fill="#74B570"/>
<path d="M52.0339 64.2778C67.7342 64.2778 72.839 88.9847 68.5197 103.312C64.2004 117.639 58.3128 144.334 58.3128 144.334L54.3906 140.352C54.3906 140.352 69.3082 102.912 65.7745 86.1846C62.2408 69.4574 53.5992 66.6661 52.0367 66.6661C50.4742 66.6661 52.0339 64.2778 52.0339 64.2778Z" fill="#9CD499"/>
<path d="M65.2033 103.421C66.2818 101.925 67.6985 100.715 69.3342 99.8911C69.1266 101.044 68.8546 102.184 68.5196 103.306C66.5513 109.839 64.2583 118.933 62.345 126.901C62.1711 125.881 61.9044 124.307 61.4754 121.883C61.3768 121.295 61.3014 120.686 61.2463 120.027C62.867 114.57 64.1881 109.026 65.2033 103.421Z" fill="#74B570"/>
<path d="M69.4966 103.541C99.3288 90.7966 83.6112 73.3047 109.913 84.8552C111.765 85.6699 114.023 87.7229 116.29 90.5495C113.594 91.3816 110.752 91.6133 107.959 91.229C100.106 90.0348 102.854 96.4057 115.809 97.994C117.872 98.2064 119.907 98.6422 121.879 99.294C128.051 111.321 130.831 127.145 117.771 132.645C115.197 133.731 112.017 134.348 108.475 134.581C104.445 131.345 109.46 112.521 103.257 115.121C97.2909 117.612 105.124 131.242 104.051 134.675C98.1635 134.566 91.6439 133.593 85.4142 132.028C82.9502 130.628 81.0659 128.748 80.4862 126.275C78.5236 117.912 91.4758 112.745 91.87 105.565C92.2295 98.9734 87.1217 120.066 73.5868 123.169C61.3478 117.371 55.5501 109.5 69.4966 103.541Z" fill="#9CD499"/>
<path d="M48.2394 81.005C51.3788 74.24 43.1345 72.6429 43.5287 77.8195C43.8766 82.408 43.9143 93.5614 39.2761 96.5968C31.2781 95.7145 20.3958 92.4467 12.1717 87.4788C12.0649 86.767 12.1858 86.0392 12.5166 85.4022C16.0503 78.2313 38.818 72.2576 31.7506 69.8692C26.1239 67.9662 16.262 79.199 8.31615 84.8699C3.54462 81.1962 0.347168 76.8166 0.347168 71.9281C0.347168 65.3102 8.27266 57.8099 18.5202 54.2391C23.1323 54.7127 27.4139 57.2716 34.1074 61.1189C43.9925 66.8015 41.7053 57.6128 32.3681 52.1596C40.4356 52.5832 48.48 56.0804 54.414 64.4366C54.414 64.4366 53.8516 68.0074 57.5766 73.5341C67.7429 88.6053 56.0112 97.4057 41.9894 96.8321C42.775 92.8349 46.0681 85.6846 48.2394 81.005Z" fill="#9CD499"/>
<path d="M87.2031 88.1641C94.8793 94.1821 103.408 101.221 113.873 106C124.338 110.78 122.248 126.357 122.248 126.357C122.248 126.357 123.816 112.903 115.093 108.3C106.37 103.697 100.613 98.2116 93.9836 97.1469C87.3539 96.0821 83.6897 95.0233 83.6897 95.0233C83.6897 95.0233 85.7827 90.776 84.5594 89.1818C83.336 87.5876 87.2031 88.1641 87.2031 88.1641Z" fill="#74B570"/>
<path d="M125.042 17.4846C96.9519 25.0967 76.3642 43.3328 72.5261 47.7565C68.688 52.1802 68.688 53.4215 68.688 53.4215L71.6535 59.0864L73.0479 58.3805C73.0479 58.3805 70.781 53.5979 76.712 47.4036C86.9421 36.7178 99.3928 28.2851 107.944 24.5673C116.496 20.8495 125.042 17.4846 125.042 17.4846Z" fill="#74B570"/>
<path d="M58.2346 175.247H47.5088C43.8438 175.247 40.3289 173.77 37.7373 171.141C35.1458 168.511 33.6899 164.945 33.6899 161.226L33.6899 136.207H72.0535L72.0535 161.226C72.0535 164.945 70.5976 168.511 68.006 171.141C65.4145 173.77 61.8996 175.247 58.2346 175.247Z" fill="#C37FDB"/>
<path d="M72.0508 140.681H33.6843V143.422H72.0508V140.681Z" fill="white"/>
<path d="M72.0508 145.678H33.6843V147.29H72.0508V145.678Z" fill="white"/>
</g>
<defs>
<filter id="filter0_d_37_1540" x="0.347168" y="0.352844" width="146.403" height="180.894" filterUnits="userSpaceOnUse" color-interpolation-filters="sRGB">
<feFlood flood-opacity="0" result="BackgroundImageFix"/>
<feColorMatrix in="SourceAlpha" type="matrix" values="0 0 0 0 0 0 0 0 0 0 0 0 0 0 0 0 0 0 127 0" result="hardAlpha"/>
<feOffset dx="7"/>
<feGaussianBlur stdDeviation="3"/>
<feComposite in2="hardAlpha" operator="out"/>
<feColorMatrix type="matrix" values="0 0 0 0 0 0 0 0 0 0 0 0 0 0 0 0 0 0 0.61 0"/>
<feBlend mode="normal" in2="BackgroundImageFix" result="effect1_dropShadow_37_1540"/>
<feBlend mode="normal" in="SourceGraphic" in2="effect1_dropShadow_37_1540" result="shape"/>
</filter>
</defs>
</svg>
