<svg width="36" height="37" viewBox="0 0 36 37" fill="none" xmlns="http://www.w3.org/2000/svg">
<g opacity="0.8" filter="url(#filter0_i_37_1504)">
<path d="M25.1686 36.3448H10.4423C7.70775 36.3417 5.08607 35.2381 3.15245 33.2762C1.21883 31.3142 0.131243 28.6542 0.128174 25.8796V10.9378C0.13201 8.16374 1.21998 5.50444 3.15351 3.54316C5.08705 1.58187 7.70825 0.478698 10.4423 0.475586H25.1686C27.9026 0.478698 30.5238 1.58187 32.4573 3.54316C34.3909 5.50444 35.4789 8.16374 35.4828 10.9378V25.8796C35.4797 28.6542 34.392 31.3142 32.4584 33.2762C30.5248 35.2381 27.9031 36.3417 25.1686 36.3448ZM10.4423 4.59341C8.78414 4.59497 7.19429 5.26379 6.02153 6.45318C4.84876 7.64256 4.18889 9.25537 4.18659 10.9378V25.8796C4.18812 27.5626 4.84768 29.1761 6.02053 30.3661C7.19338 31.5562 8.78364 32.2254 10.4423 32.227H25.1686C26.8272 32.2254 28.4175 31.5562 29.5903 30.3661C30.7632 29.1761 31.4228 27.5626 31.4243 25.8796V10.9378C31.422 9.25537 30.7621 7.64256 29.5893 6.45318C28.4166 5.26379 26.8267 4.59497 25.1686 4.59341H10.4423Z" fill="#C37FDB"/>
</g>
<defs>
<filter id="filter0_i_37_1504" x="0.128174" y="0.475586" width="35.3545" height="39.8692" filterUnits="userSpaceOnUse" color-interpolation-filters="sRGB">
<feFlood flood-opacity="0" result="BackgroundImageFix"/>
<feBlend mode="normal" in="SourceGraphic" in2="BackgroundImageFix" result="shape"/>
<feColorMatrix in="SourceAlpha" type="matrix" values="0 0 0 0 0 0 0 0 0 0 0 0 0 0 0 0 0 0 127 0" result="hardAlpha"/>
<feOffset dy="4"/>
<feGaussianBlur stdDeviation="2.5"/>
<feComposite in2="hardAlpha" operator="arithmetic" k2="-1" k3="1"/>
<feColorMatrix type="matrix" values="0 0 0 0 0 0 0 0 0 0 0 0 0 0 0 0 0 0 0.48 0"/>
<feBlend mode="normal" in2="shape" result="effect1_innerShadow_37_1504"/>
</filter>
</defs>
</svg>
