<svg width="266" height="223" viewBox="0 0 266 223" fill="none" xmlns="http://www.w3.org/2000/svg">
<path d="M160.152 222.24C159.169 222.24 158.166 222.24 157.134 222.202C144.266 221.882 135.506 220.076 128.47 218.623C120.252 216.928 115.715 215.996 110.457 218.549C109.975 218.794 109.449 218.938 108.911 218.974C108.374 219.011 107.834 218.938 107.324 218.76C106.814 218.583 106.344 218.304 105.942 217.94C105.54 217.576 105.213 217.135 104.98 216.641C104.748 216.148 104.615 215.612 104.589 215.066C104.562 214.52 104.644 213.973 104.828 213.459C105.012 212.945 105.295 212.474 105.661 212.072C106.026 211.67 106.467 211.346 106.958 211.119C114.677 207.375 121.142 208.707 130.085 210.552C136.81 211.94 145.182 213.666 157.334 213.969C170.936 214.314 179.227 212.266 183.424 207.537C187.169 203.322 188.265 196.242 186.874 185.256C186.398 181.494 185.92 178.368 185.5 175.609C184.314 167.823 183.528 162.667 184.5 154.726C185.401 147.343 187.81 137.51 193.393 118.439C193.546 117.92 193.797 117.438 194.133 117.018C194.469 116.598 194.884 116.25 195.353 115.992C195.822 115.735 196.336 115.574 196.866 115.518C197.396 115.463 197.932 115.514 198.443 115.668C198.954 115.823 199.43 116.078 199.844 116.419C200.257 116.76 200.601 117.18 200.854 117.656C201.108 118.132 201.267 118.654 201.321 119.192C201.376 119.73 201.326 120.274 201.174 120.792C190.773 156.329 191.3 159.788 193.521 174.356C193.95 177.165 194.434 180.347 194.924 184.212C196.64 197.76 194.904 206.928 189.454 213.058C183.847 219.367 174.742 222.24 160.152 222.24Z" fill="#2E5B9A"/>
<path d="M79.1548 154.846H26.2765C25.5029 154.846 24.7453 154.622 24.093 154.2C23.4408 153.778 22.9209 153.176 22.5949 152.464L1.22736 105.8C0.78859 104.812 0.751446 103.688 1.12392 102.672C1.4964 101.657 2.2485 100.831 3.21711 100.374C4.18573 99.9174 5.29275 99.8666 6.29811 100.233C7.30348 100.599 8.12613 101.352 8.58763 102.329L28.8797 146.611H79.1693C80.2456 146.611 81.2779 147.044 82.039 147.817C82.8001 148.589 83.2277 149.636 83.2277 150.728C83.2277 151.821 82.8001 152.868 82.039 153.64C81.2779 154.412 80.2456 154.846 79.1693 154.846H79.1548Z" fill="#75A1DE"/>
<g filter="url(#filter0_d_37_1525)">
<path d="M90.2199 138.651C79.5347 138.496 68.9364 132.033 63.6721 132.975C58.4077 133.916 41.2204 146.016 43.38 146.487C45.5397 146.958 59.173 139.793 59.6368 139.684C60.1006 139.575 63.0459 144.646 70.3221 146.511C77.5982 148.375 70.3743 140.975 92.9333 147.89C107.613 152.384 90.2199 138.651 90.2199 138.651Z" fill="#F09959"/>
</g>
<g filter="url(#filter1_d_37_1525)">
<path d="M177.487 63.3717L179.058 76.2076C179.058 76.2076 165.234 77.0429 158.352 80.9696C151.47 84.8962 141.318 96.2584 141.318 96.2584L149.615 81.7666L150.809 72.4957L177.487 63.3717Z" fill="#F2E5DE"/>
</g>
<g filter="url(#filter2_d_37_1525)">
<path d="M171.603 79.0842C161.335 77.1311 156.584 86.4698 149.925 101.709C143.266 116.948 131.9 135.46 129.633 137.846C127.366 140.231 91.5387 137.846 91.5387 137.846C91.5387 137.846 90.4546 148.372 91.5387 149.631C92.6229 150.89 98.8178 150.728 98.8178 150.728C98.8178 150.728 101.296 152.737 103.618 154.326C105.94 155.914 125.606 158.899 134.743 158.429C143.881 157.958 152.241 157.173 153.479 155.758C154.717 154.343 179.67 115.377 181.204 101.394C182.737 87.411 176.844 80.0813 171.603 79.0842Z" fill="#F2E5DE"/>
</g>
<g filter="url(#filter3_d_37_1525)">
<path d="M141.318 14.9814C121.896 15.9226 124.942 45.571 124.942 45.571C124.942 45.571 129.986 47.1505 140.556 45.3828C139.744 42.2003 140.092 34.0705 140.092 34.0705C140.092 34.0705 141.318 40.6678 142.878 44.6768C145.113 45.7151 147.64 44.7945 151.937 43.7386C154.146 53.1507 160.381 57.1391 164.648 58.501C169.367 60.0069 174.359 61.8011 179.934 58.9745C185.508 56.1479 182.444 27.2349 179.482 21.4229C175.041 12.696 167.654 4.88687 154.879 9.01058C148.472 11.0783 141.318 14.9814 141.318 14.9814Z" fill="#303C60"/>
</g>
<g filter="url(#filter4_d_37_1525)">
<path d="M175.096 50.1888L183.036 61.9541C183.036 61.9541 174.235 84.2668 199.832 94.3731C219.877 102.291 217.515 116.239 208.459 130.257C199.403 144.275 213.877 156.555 213.877 156.555C213.877 156.555 216.086 141.016 235.563 138.084C262.12 134.084 269.639 97.9085 249.802 79.8195C233.389 64.8483 228.394 77.2459 217.283 63.813C206.172 50.38 185.198 59.454 185.198 59.454L177.51 48.077L175.096 50.1888Z" fill="#303C60"/>
</g>
<g filter="url(#filter5_d_37_1525)">
<path d="M258.94 116.259C258.817 116.259 258.696 116.227 258.59 116.165C258.483 116.103 258.394 116.015 258.332 115.908C258.269 115.8 258.235 115.679 258.233 115.554C258.231 115.43 258.261 115.307 258.319 115.197C264.987 102.815 259.549 87.8139 256.809 83.749C256.519 83.3196 256.229 82.8667 255.939 82.4196C253.246 78.1576 249.895 72.8486 232.012 69.5837C227.707 68.7955 224.22 66.1983 220.53 63.4482C212.903 57.7685 204.261 51.3329 185.482 60.101C185.316 60.1599 185.133 60.1533 184.971 60.0825C184.808 60.0117 184.678 59.8818 184.605 59.7184C184.533 59.5551 184.523 59.37 184.578 59.1996C184.633 59.0293 184.749 58.886 184.903 58.798C204.435 49.6799 213.436 56.3802 221.376 62.2952C224.933 64.9424 228.29 67.4454 232.276 68.1778C250.762 71.5544 254.307 77.1546 257.14 81.6548C257.429 82.1049 257.696 82.5372 257.974 82.9461C260.844 87.2051 266.552 102.92 259.56 115.889C259.499 116.001 259.409 116.094 259.3 116.16C259.191 116.225 259.066 116.259 258.94 116.259Z" fill="#303C60"/>
</g>
<g filter="url(#filter6_d_37_1525)">
<path d="M170.854 62.2482C169.473 62.2393 168.094 62.1273 166.729 61.9128C159.934 60.8775 150.817 56.9597 150.104 34.9588C150.096 34.8616 150.107 34.7636 150.137 34.671C150.167 34.5783 150.216 34.4929 150.279 34.4199C150.343 34.3468 150.421 34.2878 150.508 34.2463C150.595 34.2048 150.69 34.1817 150.786 34.1785C150.882 34.1753 150.977 34.192 151.067 34.2276C151.157 34.2632 151.238 34.317 151.306 34.3856C151.375 34.4542 151.429 34.5363 151.465 34.6267C151.501 34.7172 151.518 34.8141 151.516 34.9117C151.806 43.9797 153.583 50.6918 156.786 54.8567C159.218 58.0186 162.445 59.8128 166.932 60.4951C173.223 61.4511 177.391 60.2716 179.322 56.9921C179.418 56.8282 179.574 56.7099 179.757 56.663C179.939 56.6161 180.132 56.6445 180.293 56.7421C180.455 56.8396 180.571 56.9982 180.617 57.1829C180.664 57.3677 180.636 57.5636 180.54 57.7274C178.768 60.7363 175.519 62.2482 170.854 62.2482Z" fill="#303C60"/>
</g>
<defs>
<filter id="filter0_d_37_1525" x="30.1934" y="125.881" width="71.6282" height="31.9126" filterUnits="userSpaceOnUse" color-interpolation-filters="sRGB">
<feFlood flood-opacity="0" result="BackgroundImageFix"/>
<feColorMatrix in="SourceAlpha" type="matrix" values="0 0 0 0 0 0 0 0 0 0 0 0 0 0 0 0 0 0 127 0" result="hardAlpha"/>
<feOffset dx="-5" dy="1"/>
<feGaussianBlur stdDeviation="4"/>
<feComposite in2="hardAlpha" operator="out"/>
<feColorMatrix type="matrix" values="0 0 0 0 0 0 0 0 0 0 0 0 0 0 0 0 0 0 0.86 0"/>
<feBlend mode="normal" in2="BackgroundImageFix" result="effect1_dropShadow_37_1525"/>
<feBlend mode="normal" in="SourceGraphic" in2="effect1_dropShadow_37_1525" result="shape"/>
</filter>
<filter id="filter1_d_37_1525" x="128.318" y="56.3717" width="53.7402" height="48.8867" filterUnits="userSpaceOnUse" color-interpolation-filters="sRGB">
<feFlood flood-opacity="0" result="BackgroundImageFix"/>
<feColorMatrix in="SourceAlpha" type="matrix" values="0 0 0 0 0 0 0 0 0 0 0 0 0 0 0 0 0 0 127 0" result="hardAlpha"/>
<feOffset dx="-5" dy="1"/>
<feGaussianBlur stdDeviation="4"/>
<feComposite in2="hardAlpha" operator="out"/>
<feColorMatrix type="matrix" values="0 0 0 0 0 0 0 0 0 0 0 0 0 0 0 0 0 0 0.86 0"/>
<feBlend mode="normal" in2="BackgroundImageFix" result="effect1_dropShadow_37_1525"/>
<feBlend mode="normal" in="SourceGraphic" in2="effect1_dropShadow_37_1525" result="shape"/>
</filter>
<filter id="filter2_d_37_1525" x="78.0569" y="71.8272" width="106.394" height="95.6513" filterUnits="userSpaceOnUse" color-interpolation-filters="sRGB">
<feFlood flood-opacity="0" result="BackgroundImageFix"/>
<feColorMatrix in="SourceAlpha" type="matrix" values="0 0 0 0 0 0 0 0 0 0 0 0 0 0 0 0 0 0 127 0" result="hardAlpha"/>
<feOffset dx="-5" dy="1"/>
<feGaussianBlur stdDeviation="4"/>
<feComposite in2="hardAlpha" operator="out"/>
<feColorMatrix type="matrix" values="0 0 0 0 0 0 0 0 0 0 0 0 0 0 0 0 0 0 0.86 0"/>
<feBlend mode="normal" in2="BackgroundImageFix" result="effect1_dropShadow_37_1525"/>
<feBlend mode="normal" in="SourceGraphic" in2="effect1_dropShadow_37_1525" result="shape"/>
</filter>
<filter id="filter3_d_37_1525" x="111.769" y="0.876831" width="74.2681" height="68.5878" filterUnits="userSpaceOnUse" color-interpolation-filters="sRGB">
<feFlood flood-opacity="0" result="BackgroundImageFix"/>
<feColorMatrix in="SourceAlpha" type="matrix" values="0 0 0 0 0 0 0 0 0 0 0 0 0 0 0 0 0 0 127 0" result="hardAlpha"/>
<feOffset dx="-5" dy="1"/>
<feGaussianBlur stdDeviation="4"/>
<feComposite in2="hardAlpha" operator="out"/>
<feColorMatrix type="matrix" values="0 0 0 0 0 0 0 0 0 0 0 0 0 0 0 0 0 0 0.86 0"/>
<feBlend mode="normal" in2="BackgroundImageFix" result="effect1_dropShadow_37_1525"/>
<feBlend mode="normal" in="SourceGraphic" in2="effect1_dropShadow_37_1525" result="shape"/>
</filter>
<filter id="filter4_d_37_1525" x="162.096" y="41.077" width="101.928" height="124.478" filterUnits="userSpaceOnUse" color-interpolation-filters="sRGB">
<feFlood flood-opacity="0" result="BackgroundImageFix"/>
<feColorMatrix in="SourceAlpha" type="matrix" values="0 0 0 0 0 0 0 0 0 0 0 0 0 0 0 0 0 0 127 0" result="hardAlpha"/>
<feOffset dx="-5" dy="1"/>
<feGaussianBlur stdDeviation="4"/>
<feComposite in2="hardAlpha" operator="out"/>
<feColorMatrix type="matrix" values="0 0 0 0 0 0 0 0 0 0 0 0 0 0 0 0 0 0 0.86 0"/>
<feBlend mode="normal" in2="BackgroundImageFix" result="effect1_dropShadow_37_1525"/>
<feBlend mode="normal" in="SourceGraphic" in2="effect1_dropShadow_37_1525" result="shape"/>
</filter>
<filter id="filter5_d_37_1525" x="171.543" y="47.3249" width="94.3582" height="77.9344" filterUnits="userSpaceOnUse" color-interpolation-filters="sRGB">
<feFlood flood-opacity="0" result="BackgroundImageFix"/>
<feColorMatrix in="SourceAlpha" type="matrix" values="0 0 0 0 0 0 0 0 0 0 0 0 0 0 0 0 0 0 127 0" result="hardAlpha"/>
<feOffset dx="-5" dy="1"/>
<feGaussianBlur stdDeviation="4"/>
<feComposite in2="hardAlpha" operator="out"/>
<feColorMatrix type="matrix" values="0 0 0 0 0 0 0 0 0 0 0 0 0 0 0 0 0 0 0.86 0"/>
<feBlend mode="normal" in2="BackgroundImageFix" result="effect1_dropShadow_37_1525"/>
<feBlend mode="normal" in="SourceGraphic" in2="effect1_dropShadow_37_1525" result="shape"/>
</filter>
<filter id="filter6_d_37_1525" x="137.102" y="27.1781" width="46.5376" height="44.07" filterUnits="userSpaceOnUse" color-interpolation-filters="sRGB">
<feFlood flood-opacity="0" result="BackgroundImageFix"/>
<feColorMatrix in="SourceAlpha" type="matrix" values="0 0 0 0 0 0 0 0 0 0 0 0 0 0 0 0 0 0 127 0" result="hardAlpha"/>
<feOffset dx="-5" dy="1"/>
<feGaussianBlur stdDeviation="4"/>
<feComposite in2="hardAlpha" operator="out"/>
<feColorMatrix type="matrix" values="0 0 0 0 0 0 0 0 0 0 0 0 0 0 0 0 0 0 0.86 0"/>
<feBlend mode="normal" in2="BackgroundImageFix" result="effect1_dropShadow_37_1525"/>
<feBlend mode="normal" in="SourceGraphic" in2="effect1_dropShadow_37_1525" result="shape"/>
</filter>
</defs>
</svg>
