<svg width="127" height="211" viewBox="0 0 127 211" fill="none" xmlns="http://www.w3.org/2000/svg">
<g filter="url(#filter0_i_37_1583)">
<path d="M126.912 0.501709H0.886475V210.09H126.912V0.501709Z" fill="#C37FDB"/>
</g>
<g filter="url(#filter1_i_37_1583)">
<path d="M122.767 4.77246H7.48438V202.102H122.767V4.77246Z" fill="white"/>
</g>
<g filter="url(#filter2_i_37_1583)">
<path d="M47.4453 47.3508C47.4453 56.7365 53.014 71.8842 66.1546 71.3989C79.2952 70.9136 82.2028 56.4747 82.713 52.401C83.2232 48.3273 47.4453 47.3508 47.4453 47.3508Z" fill="#7A4E34"/>
</g>
<g filter="url(#filter3_i_37_1583)">
<path d="M41.9692 83.9024C46.3175 74.4284 53.6517 71.3959 65.711 71.3959C80.0691 71.3959 87.525 76.6903 89.6382 84.3583C63.9253 84.7171 41.9692 83.9024 41.9692 83.9024Z" fill="#D54A41"/>
</g>
<g filter="url(#filter4_i_37_1583)">
<path d="M68.094 78.9581C66.717 81.017 65.7111 81.1023 64.2182 78.9581C63.0325 77.2521 60.696 73.3696 60.696 71.4136V51.7981C60.6983 50.851 61.0702 49.9433 61.7302 49.2737C62.3902 48.604 63.2848 48.2267 64.2182 48.2244H68.094C69.0274 48.2267 69.9219 48.604 70.582 49.2737C71.242 49.9433 71.6138 50.851 71.6161 51.7981V71.4166C71.6161 73.3784 69.326 77.1109 68.094 78.9581Z" fill="#F09959"/>
</g>
<g filter="url(#filter5_i_37_1583)">
<path d="M68.094 48.2214H64.2182C63.2843 48.2238 62.3893 48.6014 61.7292 49.2718C61.0691 49.9421 60.6976 50.8505 60.696 51.7981V69.2988C65.0443 70.7047 69.0187 67.9105 71.6161 64.7633V51.7981C71.6146 50.8505 71.2431 49.9421 70.583 49.2718C69.9229 48.6014 69.0279 48.2238 68.094 48.2214Z" fill="#E38540"/>
</g>
<g filter="url(#filter6_i_37_1583)">
<path d="M66.1546 64.6104C72.6226 64.6104 77.866 57.361 77.866 48.4185C77.866 39.476 72.6226 32.2267 66.1546 32.2267C59.6865 32.2267 54.4431 39.476 54.4431 48.4185C54.4431 57.361 59.6865 64.6104 66.1546 64.6104Z" fill="#F09959"/>
</g>
<g filter="url(#filter7_i_37_1583)">
<path d="M72.5986 36.1121C71.2071 41.0917 68.1575 41.0329 63.902 42.6683C59.6465 44.3037 57.6173 45.9478 56.2258 49.1392C54.4488 53.2011 57.0317 65.0457 57.0317 65.0457C57.0317 65.0457 46.2624 56.8718 47.506 44.0125C48.7496 31.1531 56.2258 26.1735 63.2556 26.1735C70.2853 26.1735 72.9639 30.5207 72.9639 30.5207C72.9639 30.5207 76.7092 30.5384 80.2516 34.7944C85.0145 40.5182 83.5476 54.4188 80.2516 59.3984C76.9556 64.3781 74.7438 65.9369 74.8307 65.7163C74.9177 65.4957 77.9064 54.057 76.2976 46.9861C74.6887 39.9152 72.5986 36.1121 72.5986 36.1121Z" fill="#7A4E34"/>
</g>
<g filter="url(#filter8_i_37_1583)">
<path d="M70.5695 57.2012C70.5695 57.2012 68.5983 59.7925 66.1661 59.7925C63.734 59.7925 61.7656 57.2012 61.7656 57.2012H70.5695Z" fill="white"/>
</g>
<g filter="url(#filter9_i_37_1583)">
<path d="M80.098 109.589H50.5296C50.0695 109.602 49.6114 109.522 49.1825 109.353C48.7535 109.184 48.3623 108.929 48.0322 108.603C47.702 108.278 47.4395 107.889 47.2603 107.458C47.0811 107.028 46.9888 106.566 46.9888 106.099C46.9888 105.632 47.0811 105.17 47.2603 104.739C47.4395 104.309 47.702 103.92 48.0322 103.595C48.3623 103.269 48.7535 103.014 49.1825 102.845C49.6114 102.676 50.0695 102.596 50.5296 102.609H80.098C80.993 102.635 81.8425 103.015 82.4664 103.666C83.0902 104.318 83.4391 105.191 83.4391 106.099C83.4391 107.007 83.0902 107.88 82.4664 108.532C81.8425 109.183 80.993 109.562 80.098 109.589Z" fill="#C37FDB"/>
</g>
<g filter="url(#filter10_i_37_1583)">
<path d="M85.5131 120.31H45.1058C44.6457 120.323 44.1876 120.243 43.7586 120.074C43.3296 119.905 42.9385 119.65 42.6083 119.324C42.2782 118.999 42.0157 118.61 41.8365 118.179C41.6573 117.749 41.5649 117.287 41.5649 116.82C41.5649 116.353 41.6573 115.891 41.8365 115.461C42.0157 115.03 42.2782 114.641 42.6083 114.316C42.9385 113.99 43.3296 113.735 43.7586 113.566C44.1876 113.397 44.6457 113.317 45.1058 113.33H85.5131C86.408 113.356 87.2576 113.736 87.8814 114.387C88.5052 115.039 88.8542 115.912 88.8542 116.82C88.8542 117.728 88.5052 118.601 87.8814 119.253C87.2576 119.904 86.408 120.283 85.5131 120.31Z" fill="#C37FDB"/>
</g>
<g filter="url(#filter11_i_37_1583)">
<path d="M114.455 158.861H16.1635C15.895 158.872 15.6272 158.827 15.3761 158.73C15.125 158.633 14.8958 158.486 14.7022 158.296C14.5087 158.107 14.3547 157.881 14.2495 157.63C14.1443 157.379 14.0901 157.109 14.0901 156.836C14.0901 156.564 14.1443 156.294 14.2495 156.043C14.3547 155.792 14.5087 155.565 14.7022 155.376C14.8958 155.187 15.125 155.04 15.3761 154.943C15.6272 154.846 15.895 154.801 16.1635 154.811H114.455C114.724 154.801 114.992 154.846 115.243 154.943C115.494 155.04 115.723 155.187 115.917 155.376C116.11 155.565 116.264 155.792 116.369 156.043C116.475 156.294 116.529 156.564 116.529 156.836C116.529 157.109 116.475 157.379 116.369 157.63C116.264 157.881 116.11 158.107 115.917 158.296C115.723 158.486 115.494 158.633 115.243 158.73C114.992 158.827 114.724 158.872 114.455 158.861Z" fill="#C37FDB"/>
</g>
<g filter="url(#filter12_i_37_1583)">
<path d="M114.455 168.274H16.1635C15.895 168.284 15.6272 168.239 15.3761 168.142C15.125 168.045 14.8958 167.898 14.7022 167.709C14.5087 167.52 14.3547 167.293 14.2495 167.042C14.1443 166.791 14.0901 166.521 14.0901 166.249C14.0901 165.976 14.1443 165.706 14.2495 165.455C14.3547 165.204 14.5087 164.978 14.7022 164.789C14.8958 164.6 15.125 164.452 15.3761 164.355C15.6272 164.258 15.895 164.213 16.1635 164.224H114.455C114.724 164.213 114.992 164.258 115.243 164.355C115.494 164.452 115.723 164.6 115.917 164.789C116.11 164.978 116.264 165.204 116.369 165.455C116.475 165.706 116.529 165.976 116.529 166.249C116.529 166.521 116.475 166.791 116.369 167.042C116.264 167.293 116.11 167.52 115.917 167.709C115.723 167.898 115.494 168.045 115.243 168.142C114.992 168.239 114.724 168.284 114.455 168.274Z" fill="#C37FDB"/>
</g>
<g filter="url(#filter13_i_37_1583)">
<path d="M114.455 177.686H16.1635C15.895 177.696 15.6272 177.651 15.3761 177.554C15.125 177.457 14.8958 177.31 14.7022 177.121C14.5087 176.932 14.3547 176.705 14.2495 176.454C14.1443 176.203 14.0901 175.933 14.0901 175.661C14.0901 175.388 14.1443 175.118 14.2495 174.867C14.3547 174.617 14.5087 174.39 14.7022 174.201C14.8958 174.012 15.125 173.864 15.3761 173.767C15.6272 173.67 15.895 173.625 16.1635 173.636H114.455C114.724 173.625 114.992 173.67 115.243 173.767C115.494 173.864 115.723 174.012 115.917 174.201C116.11 174.39 116.264 174.617 116.369 174.867C116.475 175.118 116.529 175.388 116.529 175.661C116.529 175.933 116.475 176.203 116.369 176.454C116.264 176.705 116.11 176.932 115.917 177.121C115.723 177.31 115.494 177.457 115.243 177.554C114.992 177.651 114.724 177.696 114.455 177.686Z" fill="#C37FDB"/>
</g>
<g filter="url(#filter14_i_37_1583)">
<path d="M100.718 86.2289H29.9101C28.9655 86.2281 28.0597 85.847 27.3918 85.1693C26.7238 84.4915 26.3482 83.5726 26.3474 82.6141V16.4083C26.3482 15.4498 26.7238 14.5308 27.3918 13.8531C28.0597 13.1753 28.9655 12.7942 29.9101 12.7934H100.718C101.663 12.7942 102.568 13.1753 103.236 13.8531C103.904 14.5308 104.28 15.4498 104.281 16.4083V82.6141C104.28 83.5726 103.904 84.4915 103.236 85.1693C102.568 85.847 101.663 86.2281 100.718 86.2289ZM29.9101 15.7347C29.7348 15.737 29.5672 15.8087 29.4432 15.9345C29.3192 16.0604 29.2485 16.2304 29.2463 16.4083V82.6141C29.2485 82.792 29.3192 82.962 29.4432 83.0878C29.5672 83.2136 29.7348 83.2853 29.9101 83.2876H100.718C100.893 83.2853 101.061 83.2136 101.185 83.0878C101.309 82.962 101.379 82.792 101.382 82.6141V16.4083C101.379 16.2304 101.309 16.0604 101.185 15.9345C101.061 15.8087 100.893 15.737 100.718 15.7347H29.9101Z" fill="#C37FDB"/>
</g>
<g filter="url(#filter15_d_37_1583)">
<path d="M40.1255 129.413L42.1751 133.628L46.7581 134.305L43.4419 137.584L44.2245 142.214L40.1255 140.028L36.0265 142.214L36.8092 137.584L33.4929 134.305L38.076 133.628L40.1255 129.413Z" fill="#C37FDB"/>
</g>
<g filter="url(#filter16_d_37_1583)">
<path d="M56.9158 129.413L58.9653 133.628L63.5484 134.305L60.2321 137.584L61.0148 142.214L56.9158 140.028L52.8168 142.214L53.5995 137.584L50.2832 134.305L54.8663 133.628L56.9158 129.413Z" fill="#C37FDB"/>
</g>
<g filter="url(#filter17_d_37_1583)">
<path d="M73.7034 129.413L75.7529 133.628L80.336 134.305L77.0197 137.584L77.8024 142.214L73.7034 140.028L69.6044 142.214L70.3871 137.584L67.0708 134.305L71.6539 133.628L73.7034 129.413Z" fill="#C37FDB"/>
</g>
<g filter="url(#filter18_d_37_1583)">
<path d="M90.4905 129.413L92.5429 133.628L97.126 134.305L93.8097 137.584L94.5924 142.214L90.4905 140.028L86.3915 142.214L87.1742 137.584L83.8579 134.305L88.441 133.628L90.4905 129.413Z" fill="#C37FDB"/>
</g>
<defs>
<filter id="filter0_i_37_1583" x="0.886475" y="0.501709" width="126.025" height="213.588" filterUnits="userSpaceOnUse" color-interpolation-filters="sRGB">
<feFlood flood-opacity="0" result="BackgroundImageFix"/>
<feBlend mode="normal" in="SourceGraphic" in2="BackgroundImageFix" result="shape"/>
<feColorMatrix in="SourceAlpha" type="matrix" values="0 0 0 0 0 0 0 0 0 0 0 0 0 0 0 0 0 0 127 0" result="hardAlpha"/>
<feOffset dy="4"/>
<feGaussianBlur stdDeviation="2"/>
<feComposite in2="hardAlpha" operator="arithmetic" k2="-1" k3="1"/>
<feColorMatrix type="matrix" values="0 0 0 0 0 0 0 0 0 0 0 0 0 0 0 0 0 0 0.25 0"/>
<feBlend mode="normal" in2="shape" result="effect1_innerShadow_37_1583"/>
</filter>
<filter id="filter1_i_37_1583" x="7.48438" y="4.77246" width="115.282" height="201.329" filterUnits="userSpaceOnUse" color-interpolation-filters="sRGB">
<feFlood flood-opacity="0" result="BackgroundImageFix"/>
<feBlend mode="normal" in="SourceGraphic" in2="BackgroundImageFix" result="shape"/>
<feColorMatrix in="SourceAlpha" type="matrix" values="0 0 0 0 0 0 0 0 0 0 0 0 0 0 0 0 0 0 127 0" result="hardAlpha"/>
<feOffset dy="4"/>
<feGaussianBlur stdDeviation="2"/>
<feComposite in2="hardAlpha" operator="arithmetic" k2="-1" k3="1"/>
<feColorMatrix type="matrix" values="0 0 0 0 0 0 0 0 0 0 0 0 0 0 0 0 0 0 0.25 0"/>
<feBlend mode="normal" in2="shape" result="effect1_innerShadow_37_1583"/>
</filter>
<filter id="filter2_i_37_1583" x="47.4453" y="47.3508" width="35.2729" height="28.0595" filterUnits="userSpaceOnUse" color-interpolation-filters="sRGB">
<feFlood flood-opacity="0" result="BackgroundImageFix"/>
<feBlend mode="normal" in="SourceGraphic" in2="BackgroundImageFix" result="shape"/>
<feColorMatrix in="SourceAlpha" type="matrix" values="0 0 0 0 0 0 0 0 0 0 0 0 0 0 0 0 0 0 127 0" result="hardAlpha"/>
<feOffset dy="6"/>
<feGaussianBlur stdDeviation="2"/>
<feComposite in2="hardAlpha" operator="arithmetic" k2="-1" k3="1"/>
<feColorMatrix type="matrix" values="0 0 0 0 0 0 0 0 0 0 0 0 0 0 0 0 0 0 0.42 0"/>
<feBlend mode="normal" in2="shape" result="effect1_innerShadow_37_1583"/>
</filter>
<filter id="filter3_i_37_1583" x="41.9692" y="71.3959" width="47.6689" height="17.0536" filterUnits="userSpaceOnUse" color-interpolation-filters="sRGB">
<feFlood flood-opacity="0" result="BackgroundImageFix"/>
<feBlend mode="normal" in="SourceGraphic" in2="BackgroundImageFix" result="shape"/>
<feColorMatrix in="SourceAlpha" type="matrix" values="0 0 0 0 0 0 0 0 0 0 0 0 0 0 0 0 0 0 127 0" result="hardAlpha"/>
<feOffset dy="6"/>
<feGaussianBlur stdDeviation="2"/>
<feComposite in2="hardAlpha" operator="arithmetic" k2="-1" k3="1"/>
<feColorMatrix type="matrix" values="0 0 0 0 0 0 0 0 0 0 0 0 0 0 0 0 0 0 0.42 0"/>
<feBlend mode="normal" in2="shape" result="effect1_innerShadow_37_1583"/>
</filter>
<filter id="filter4_i_37_1583" x="60.696" y="48.2244" width="10.9202" height="36.31" filterUnits="userSpaceOnUse" color-interpolation-filters="sRGB">
<feFlood flood-opacity="0" result="BackgroundImageFix"/>
<feBlend mode="normal" in="SourceGraphic" in2="BackgroundImageFix" result="shape"/>
<feColorMatrix in="SourceAlpha" type="matrix" values="0 0 0 0 0 0 0 0 0 0 0 0 0 0 0 0 0 0 127 0" result="hardAlpha"/>
<feOffset dy="6"/>
<feGaussianBlur stdDeviation="2"/>
<feComposite in2="hardAlpha" operator="arithmetic" k2="-1" k3="1"/>
<feColorMatrix type="matrix" values="0 0 0 0 0 0 0 0 0 0 0 0 0 0 0 0 0 0 0.42 0"/>
<feBlend mode="normal" in2="shape" result="effect1_innerShadow_37_1583"/>
</filter>
<filter id="filter5_i_37_1583" x="60.696" y="48.2214" width="10.9202" height="25.4508" filterUnits="userSpaceOnUse" color-interpolation-filters="sRGB">
<feFlood flood-opacity="0" result="BackgroundImageFix"/>
<feBlend mode="normal" in="SourceGraphic" in2="BackgroundImageFix" result="shape"/>
<feColorMatrix in="SourceAlpha" type="matrix" values="0 0 0 0 0 0 0 0 0 0 0 0 0 0 0 0 0 0 127 0" result="hardAlpha"/>
<feOffset dy="6"/>
<feGaussianBlur stdDeviation="2"/>
<feComposite in2="hardAlpha" operator="arithmetic" k2="-1" k3="1"/>
<feColorMatrix type="matrix" values="0 0 0 0 0 0 0 0 0 0 0 0 0 0 0 0 0 0 0.42 0"/>
<feBlend mode="normal" in2="shape" result="effect1_innerShadow_37_1583"/>
</filter>
<filter id="filter6_i_37_1583" x="54.4431" y="32.2267" width="23.4229" height="36.3837" filterUnits="userSpaceOnUse" color-interpolation-filters="sRGB">
<feFlood flood-opacity="0" result="BackgroundImageFix"/>
<feBlend mode="normal" in="SourceGraphic" in2="BackgroundImageFix" result="shape"/>
<feColorMatrix in="SourceAlpha" type="matrix" values="0 0 0 0 0 0 0 0 0 0 0 0 0 0 0 0 0 0 127 0" result="hardAlpha"/>
<feOffset dy="6"/>
<feGaussianBlur stdDeviation="2"/>
<feComposite in2="hardAlpha" operator="arithmetic" k2="-1" k3="1"/>
<feColorMatrix type="matrix" values="0 0 0 0 0 0 0 0 0 0 0 0 0 0 0 0 0 0 0.42 0"/>
<feBlend mode="normal" in2="shape" result="effect1_innerShadow_37_1583"/>
</filter>
<filter id="filter7_i_37_1583" x="47.406" y="26.1735" width="35.8923" height="43.563" filterUnits="userSpaceOnUse" color-interpolation-filters="sRGB">
<feFlood flood-opacity="0" result="BackgroundImageFix"/>
<feBlend mode="normal" in="SourceGraphic" in2="BackgroundImageFix" result="shape"/>
<feColorMatrix in="SourceAlpha" type="matrix" values="0 0 0 0 0 0 0 0 0 0 0 0 0 0 0 0 0 0 127 0" result="hardAlpha"/>
<feOffset dy="6"/>
<feGaussianBlur stdDeviation="2"/>
<feComposite in2="hardAlpha" operator="arithmetic" k2="-1" k3="1"/>
<feColorMatrix type="matrix" values="0 0 0 0 0 0 0 0 0 0 0 0 0 0 0 0 0 0 0.42 0"/>
<feBlend mode="normal" in2="shape" result="effect1_innerShadow_37_1583"/>
</filter>
<filter id="filter8_i_37_1583" x="61.7656" y="57.2012" width="8.80396" height="6.59128" filterUnits="userSpaceOnUse" color-interpolation-filters="sRGB">
<feFlood flood-opacity="0" result="BackgroundImageFix"/>
<feBlend mode="normal" in="SourceGraphic" in2="BackgroundImageFix" result="shape"/>
<feColorMatrix in="SourceAlpha" type="matrix" values="0 0 0 0 0 0 0 0 0 0 0 0 0 0 0 0 0 0 127 0" result="hardAlpha"/>
<feOffset dy="6"/>
<feGaussianBlur stdDeviation="2"/>
<feComposite in2="hardAlpha" operator="arithmetic" k2="-1" k3="1"/>
<feColorMatrix type="matrix" values="0 0 0 0 0 0 0 0 0 0 0 0 0 0 0 0 0 0 0.42 0"/>
<feBlend mode="normal" in2="shape" result="effect1_innerShadow_37_1583"/>
</filter>
<filter id="filter9_i_37_1583" x="46.9888" y="102.608" width="36.4504" height="10.9826" filterUnits="userSpaceOnUse" color-interpolation-filters="sRGB">
<feFlood flood-opacity="0" result="BackgroundImageFix"/>
<feBlend mode="normal" in="SourceGraphic" in2="BackgroundImageFix" result="shape"/>
<feColorMatrix in="SourceAlpha" type="matrix" values="0 0 0 0 0 0 0 0 0 0 0 0 0 0 0 0 0 0 127 0" result="hardAlpha"/>
<feOffset dy="4"/>
<feGaussianBlur stdDeviation="3"/>
<feComposite in2="hardAlpha" operator="arithmetic" k2="-1" k3="1"/>
<feColorMatrix type="matrix" values="0 0 0 0 0 0 0 0 0 0 0 0 0 0 0 0 0 0 0.51 0"/>
<feBlend mode="normal" in2="shape" result="effect1_innerShadow_37_1583"/>
</filter>
<filter id="filter10_i_37_1583" x="41.5649" y="113.329" width="47.2893" height="10.9826" filterUnits="userSpaceOnUse" color-interpolation-filters="sRGB">
<feFlood flood-opacity="0" result="BackgroundImageFix"/>
<feBlend mode="normal" in="SourceGraphic" in2="BackgroundImageFix" result="shape"/>
<feColorMatrix in="SourceAlpha" type="matrix" values="0 0 0 0 0 0 0 0 0 0 0 0 0 0 0 0 0 0 127 0" result="hardAlpha"/>
<feOffset dy="4"/>
<feGaussianBlur stdDeviation="3"/>
<feComposite in2="hardAlpha" operator="arithmetic" k2="-1" k3="1"/>
<feColorMatrix type="matrix" values="0 0 0 0 0 0 0 0 0 0 0 0 0 0 0 0 0 0 0.51 0"/>
<feBlend mode="normal" in2="shape" result="effect1_innerShadow_37_1583"/>
</filter>
<filter id="filter11_i_37_1583" x="14.0901" y="154.81" width="102.439" height="8.05313" filterUnits="userSpaceOnUse" color-interpolation-filters="sRGB">
<feFlood flood-opacity="0" result="BackgroundImageFix"/>
<feBlend mode="normal" in="SourceGraphic" in2="BackgroundImageFix" result="shape"/>
<feColorMatrix in="SourceAlpha" type="matrix" values="0 0 0 0 0 0 0 0 0 0 0 0 0 0 0 0 0 0 127 0" result="hardAlpha"/>
<feOffset dy="4"/>
<feGaussianBlur stdDeviation="3"/>
<feComposite in2="hardAlpha" operator="arithmetic" k2="-1" k3="1"/>
<feColorMatrix type="matrix" values="0 0 0 0 0 0 0 0 0 0 0 0 0 0 0 0 0 0 0.51 0"/>
<feBlend mode="normal" in2="shape" result="effect1_innerShadow_37_1583"/>
</filter>
<filter id="filter12_i_37_1583" x="14.0901" y="164.222" width="102.439" height="8.05313" filterUnits="userSpaceOnUse" color-interpolation-filters="sRGB">
<feFlood flood-opacity="0" result="BackgroundImageFix"/>
<feBlend mode="normal" in="SourceGraphic" in2="BackgroundImageFix" result="shape"/>
<feColorMatrix in="SourceAlpha" type="matrix" values="0 0 0 0 0 0 0 0 0 0 0 0 0 0 0 0 0 0 127 0" result="hardAlpha"/>
<feOffset dy="4"/>
<feGaussianBlur stdDeviation="3"/>
<feComposite in2="hardAlpha" operator="arithmetic" k2="-1" k3="1"/>
<feColorMatrix type="matrix" values="0 0 0 0 0 0 0 0 0 0 0 0 0 0 0 0 0 0 0.51 0"/>
<feBlend mode="normal" in2="shape" result="effect1_innerShadow_37_1583"/>
</filter>
<filter id="filter13_i_37_1583" x="14.0901" y="173.634" width="102.439" height="8.05313" filterUnits="userSpaceOnUse" color-interpolation-filters="sRGB">
<feFlood flood-opacity="0" result="BackgroundImageFix"/>
<feBlend mode="normal" in="SourceGraphic" in2="BackgroundImageFix" result="shape"/>
<feColorMatrix in="SourceAlpha" type="matrix" values="0 0 0 0 0 0 0 0 0 0 0 0 0 0 0 0 0 0 127 0" result="hardAlpha"/>
<feOffset dy="4"/>
<feGaussianBlur stdDeviation="3"/>
<feComposite in2="hardAlpha" operator="arithmetic" k2="-1" k3="1"/>
<feColorMatrix type="matrix" values="0 0 0 0 0 0 0 0 0 0 0 0 0 0 0 0 0 0 0.51 0"/>
<feBlend mode="normal" in2="shape" result="effect1_innerShadow_37_1583"/>
</filter>
<filter id="filter14_i_37_1583" x="26.3474" y="12.7934" width="77.9331" height="77.4355" filterUnits="userSpaceOnUse" color-interpolation-filters="sRGB">
<feFlood flood-opacity="0" result="BackgroundImageFix"/>
<feBlend mode="normal" in="SourceGraphic" in2="BackgroundImageFix" result="shape"/>
<feColorMatrix in="SourceAlpha" type="matrix" values="0 0 0 0 0 0 0 0 0 0 0 0 0 0 0 0 0 0 127 0" result="hardAlpha"/>
<feOffset dy="4"/>
<feGaussianBlur stdDeviation="3"/>
<feComposite in2="hardAlpha" operator="arithmetic" k2="-1" k3="1"/>
<feColorMatrix type="matrix" values="0 0 0 0 0 0 0 0 0 0 0 0 0 0 0 0 0 0 0.51 0"/>
<feBlend mode="normal" in2="shape" result="effect1_innerShadow_37_1583"/>
</filter>
<filter id="filter15_d_37_1583" x="24.4929" y="123.413" width="25.2651" height="24.8006" filterUnits="userSpaceOnUse" color-interpolation-filters="sRGB">
<feFlood flood-opacity="0" result="BackgroundImageFix"/>
<feColorMatrix in="SourceAlpha" type="matrix" values="0 0 0 0 0 0 0 0 0 0 0 0 0 0 0 0 0 0 127 0" result="hardAlpha"/>
<feOffset dx="-3"/>
<feGaussianBlur stdDeviation="3"/>
<feComposite in2="hardAlpha" operator="out"/>
<feColorMatrix type="matrix" values="0 0 0 0 0 0 0 0 0 0 0 0 0 0 0 0 0 0 0.4 0"/>
<feBlend mode="normal" in2="BackgroundImageFix" result="effect1_dropShadow_37_1583"/>
<feBlend mode="normal" in="SourceGraphic" in2="effect1_dropShadow_37_1583" result="shape"/>
</filter>
<filter id="filter16_d_37_1583" x="41.2832" y="123.413" width="25.2651" height="24.8006" filterUnits="userSpaceOnUse" color-interpolation-filters="sRGB">
<feFlood flood-opacity="0" result="BackgroundImageFix"/>
<feColorMatrix in="SourceAlpha" type="matrix" values="0 0 0 0 0 0 0 0 0 0 0 0 0 0 0 0 0 0 127 0" result="hardAlpha"/>
<feOffset dx="-3"/>
<feGaussianBlur stdDeviation="3"/>
<feComposite in2="hardAlpha" operator="out"/>
<feColorMatrix type="matrix" values="0 0 0 0 0 0 0 0 0 0 0 0 0 0 0 0 0 0 0.4 0"/>
<feBlend mode="normal" in2="BackgroundImageFix" result="effect1_dropShadow_37_1583"/>
<feBlend mode="normal" in="SourceGraphic" in2="effect1_dropShadow_37_1583" result="shape"/>
</filter>
<filter id="filter17_d_37_1583" x="58.0708" y="123.413" width="25.2651" height="24.8006" filterUnits="userSpaceOnUse" color-interpolation-filters="sRGB">
<feFlood flood-opacity="0" result="BackgroundImageFix"/>
<feColorMatrix in="SourceAlpha" type="matrix" values="0 0 0 0 0 0 0 0 0 0 0 0 0 0 0 0 0 0 127 0" result="hardAlpha"/>
<feOffset dx="-3"/>
<feGaussianBlur stdDeviation="3"/>
<feComposite in2="hardAlpha" operator="out"/>
<feColorMatrix type="matrix" values="0 0 0 0 0 0 0 0 0 0 0 0 0 0 0 0 0 0 0.4 0"/>
<feBlend mode="normal" in2="BackgroundImageFix" result="effect1_dropShadow_37_1583"/>
<feBlend mode="normal" in="SourceGraphic" in2="effect1_dropShadow_37_1583" result="shape"/>
</filter>
<filter id="filter18_d_37_1583" x="74.8579" y="123.413" width="25.2681" height="24.8006" filterUnits="userSpaceOnUse" color-interpolation-filters="sRGB">
<feFlood flood-opacity="0" result="BackgroundImageFix"/>
<feColorMatrix in="SourceAlpha" type="matrix" values="0 0 0 0 0 0 0 0 0 0 0 0 0 0 0 0 0 0 127 0" result="hardAlpha"/>
<feOffset dx="-3"/>
<feGaussianBlur stdDeviation="3"/>
<feComposite in2="hardAlpha" operator="out"/>
<feColorMatrix type="matrix" values="0 0 0 0 0 0 0 0 0 0 0 0 0 0 0 0 0 0 0.4 0"/>
<feBlend mode="normal" in2="BackgroundImageFix" result="effect1_dropShadow_37_1583"/>
<feBlend mode="normal" in="SourceGraphic" in2="effect1_dropShadow_37_1583" result="shape"/>
</filter>
</defs>
</svg>
