<svg width="173" height="287" viewBox="0 0 173 287" fill="none" xmlns="http://www.w3.org/2000/svg">
<g filter="url(#filter0_i_37_1604)">
<path d="M172.186 0.161804H0.0539551V286.427H172.186V0.161804Z" fill="#C37FDB"/>
</g>
<g filter="url(#filter1_i_37_1604)">
<path d="M165.461 8H8V277.523H165.461V8Z" fill="white"/>
</g>
<g filter="url(#filter2_i_37_1604)">
<path d="M73.1256 62.6057C73.0155 62.2733 70.2587 46.2167 69.9369 39.9753C69.6151 33.7338 79.8278 32.8397 79.8278 32.8397C79.8278 32.8397 88.1766 28.2689 94.2207 30.6102C100.265 32.9514 104.367 36.8899 107.124 41.7871C109.88 46.6844 104.709 61.9792 104.709 61.9792L73.1256 62.6057Z" fill="#2E2D3D"/>
</g>
<g filter="url(#filter3_i_37_1604)">
<path d="M54.1786 114.19C54.1409 113.926 54.8859 107.608 54.912 107.352C56.3035 94.0482 72.4676 90.2921 88.594 90.2921C107.544 90.2921 120.4 93.8217 122.453 107.646C122.514 108.052 123.612 114.384 123.551 114.811C88.4287 115.302 54.1786 114.19 54.1786 114.19Z" fill="#D5E1E8"/>
</g>
<g filter="url(#filter4_i_37_1604)">
<path d="M91.8495 100.631C89.971 103.443 88.594 103.572 86.5561 100.631C84.9357 98.3043 79.5264 92.9835 79.5264 90.3039L81.7469 63.5381C81.7507 62.2448 82.2585 61.0056 83.1595 60.0909C84.0605 59.1762 85.2815 58.6602 86.5561 58.6555H91.8495C93.1245 58.6594 94.3463 59.1751 95.2479 60.0899C96.1495 61.0047 96.6577 62.2443 96.6616 63.5381L97.6936 90.3039C97.6936 92.9893 93.5337 98.1102 91.8495 100.631Z" fill="#F09959"/>
</g>
<g filter="url(#filter5_i_37_1604)">
<path d="M91.8496 58.6496H86.5563C85.2817 58.6543 84.0607 59.1703 83.1597 60.085C82.2587 60.9997 81.7509 62.239 81.7471 63.5322L79.8193 87.2832C85.762 89.2039 93.7861 85.3008 97.3343 81.0035L96.6618 63.5322C96.6579 62.2384 96.1497 60.9988 95.2481 60.084C94.3465 59.1692 93.1247 58.6535 91.8496 58.6496Z" fill="#E38540"/>
</g>
<g filter="url(#filter6_i_37_1604)">
<path d="M71.0415 92.2569L79.5265 108.169C79.5265 108.169 84.0661 104.378 84.5068 105.122C84.9474 105.866 83.7009 115.246 83.7009 115.246C83.7009 115.246 93.8092 115.384 94.2499 114.952C94.6905 114.52 92.1975 104.763 93.2236 104.763C94.2498 104.763 97.3343 107.59 97.3343 107.59L106.808 92.2716L104.726 91.7569L89.2058 100.216L72.6069 91.9275L71.0415 92.2569Z" fill="#BDCCD4"/>
</g>
<g filter="url(#filter7_i_37_1604)">
<path d="M80.7441 99.5896L87.0463 103.878L85.0924 115.267L93.589 114.784L91.4671 104.428L96.6908 99.5896L94.2384 97.2425H83.1966L80.7441 99.5896Z" fill="#D54A41"/>
</g>
<g filter="url(#filter8_i_37_1604)">
<path d="M79.964 84.4596L72.1719 91.9834C72.1719 91.9834 80.1119 106.311 80.5496 106.311C80.9873 106.311 87.2895 98.4102 87.2895 98.4102L91.3218 98.3396L97.6993 105.122L105.1 91.8334L97.5631 83.7154C97.5631 83.7154 91.116 96.363 89.9449 96.6572C88.7737 96.9513 88.765 97.1042 87.8171 96.363C86.8691 95.6218 79.964 84.4596 79.964 84.4596Z" fill="#D5E1E8"/>
</g>
<g filter="url(#filter9_i_37_1604)">
<path d="M89.2027 81.0359C98.037 81.0359 105.199 71.1344 105.199 58.9202C105.199 46.7061 98.037 36.8046 89.2027 36.8046C80.3684 36.8046 73.2068 46.7061 73.2068 58.9202C73.2068 71.1344 80.3684 81.0359 89.2027 81.0359Z" fill="#F09959"/>
</g>
<g filter="url(#filter10_i_37_1604)">
<path d="M74.8448 58.579C76.3406 61.7762 75.8508 65.1882 73.7491 66.2C71.6474 67.2118 68.734 65.4411 67.2382 62.2439C65.7424 59.0467 66.2323 55.6377 68.3311 54.6259C70.4299 53.6141 73.349 55.3848 74.8448 58.579Z" fill="#F09959"/>
</g>
<g filter="url(#filter11_i_37_1604)">
<path d="M102.83 58.579C101.335 61.7762 101.825 65.1882 103.923 66.2C106.022 67.2118 108.938 65.4411 110.434 62.2439C111.93 59.0467 111.443 55.6377 109.341 54.6259C107.24 53.6141 104.338 55.3848 102.83 58.579Z" fill="#F09959"/>
</g>
<g filter="url(#filter12_i_37_1604)">
<path d="M96.2993 67.9971C96.2993 67.9971 93.1105 73.2179 89.2029 73.2179C85.2952 73.2179 82.1064 67.9971 82.1064 67.9971H96.2993Z" fill="white"/>
</g>
<g filter="url(#filter13_i_37_1604)">
<path d="M79.8192 43.8755C86.4112 39.1929 89.3855 39.9753 94.3135 47.6668C99.2416 55.3583 105.193 55.4966 105.193 55.4966L105.961 47.5197C105.961 47.5197 98.5952 33.0603 88.7071 34.9574C78.8191 36.8546 73.1982 45.8844 73.1982 45.8844C73.1982 45.8844 72.717 62.8086 74.0968 63.3881C75.4767 63.9675 75.6332 57.9231 76.6217 56.6966C77.6102 55.4701 75.6332 49.6728 76.9522 46.9903C78.2712 44.3078 79.8192 43.8755 79.8192 43.8755Z" fill="#2E2D3D"/>
</g>
<g filter="url(#filter14_i_37_1604)">
<path d="M101.024 52.5729C103.326 55.1289 102.454 65.2823 103.662 65.1705C104.871 65.0587 105.312 55.4642 104.981 54.4671C104.651 53.47 101.024 52.5729 101.024 52.5729Z" fill="#2E2D3D"/>
</g>
<g filter="url(#filter15_i_37_1604)">
<path d="M124.787 149.159H51.306C50.0803 149.129 48.9151 148.613 48.0589 147.722C47.2028 146.832 46.7236 145.637 46.7236 144.393C46.7236 143.149 47.2028 141.954 48.0589 141.064C48.9151 140.173 50.0803 139.658 51.306 139.627H124.787C125.413 139.611 126.037 139.722 126.62 139.955C127.204 140.187 127.736 140.536 128.184 140.98C128.633 141.424 128.99 141.955 129.233 142.541C129.477 143.127 129.602 143.757 129.602 144.393C129.602 145.029 129.477 145.659 129.233 146.245C128.99 146.831 128.633 147.362 128.184 147.806C127.736 148.25 127.204 148.599 126.62 148.831C126.037 149.064 125.413 149.175 124.787 149.159Z" fill="#C37FDB"/>
</g>
<g filter="url(#filter16_i_37_1604)">
<path d="M115.644 163.804H60.452C59.8253 163.82 59.2018 163.708 58.6182 163.476C58.0347 163.243 57.5029 162.895 57.0541 162.451C56.6053 162.007 56.2487 161.476 56.0052 160.89C55.7617 160.303 55.6362 159.674 55.6362 159.038C55.6362 158.402 55.7617 157.772 56.0052 157.186C56.2487 156.6 56.6053 156.069 57.0541 155.625C57.5029 155.181 58.0347 154.832 58.6182 154.6C59.2018 154.367 59.8253 154.256 60.452 154.271H115.644C116.869 154.302 118.035 154.818 118.891 155.709C119.747 156.599 120.226 157.794 120.226 159.038C120.226 160.282 119.747 161.477 118.891 162.367C118.035 163.258 116.869 163.773 115.644 163.804Z" fill="#C37FDB"/>
</g>
<g filter="url(#filter17_i_37_1604)">
<path d="M155.175 216.468H20.92C20.5622 216.468 20.2078 216.397 19.8772 216.258C19.5466 216.119 19.2462 215.915 18.9932 215.658C18.7402 215.402 18.5394 215.097 18.4025 214.761C18.2656 214.426 18.1951 214.066 18.1951 213.703C18.1951 213.34 18.2656 212.981 18.4025 212.645C18.5394 212.31 18.7402 212.005 18.9932 211.748C19.2462 211.492 19.5466 211.288 19.8772 211.149C20.2078 211.01 20.5622 210.939 20.92 210.939H155.175C155.533 210.939 155.887 211.01 156.218 211.149C156.549 211.288 156.849 211.492 157.102 211.748C157.355 212.005 157.556 212.31 157.693 212.645C157.83 212.981 157.9 213.34 157.9 213.703C157.9 214.066 157.83 214.426 157.693 214.761C157.556 215.097 157.355 215.402 157.102 215.658C156.849 215.915 156.549 216.119 156.218 216.258C155.887 216.397 155.533 216.468 155.175 216.468Z" fill="#C37FDB"/>
</g>
<g filter="url(#filter18_i_37_1604)">
<path d="M155.175 229.322H20.92C20.1973 229.322 19.5042 229.03 18.9932 228.512C18.4822 227.993 18.1951 227.29 18.1951 226.557C18.1951 225.824 18.4822 225.12 18.9932 224.602C19.5042 224.083 20.1973 223.792 20.92 223.792H155.175C155.898 223.792 156.591 224.083 157.102 224.602C157.613 225.12 157.9 225.824 157.9 226.557C157.9 227.29 157.613 227.993 157.102 228.512C156.591 229.03 155.898 229.322 155.175 229.322Z" fill="#C37FDB"/>
</g>
<g filter="url(#filter19_i_37_1604)">
<path d="M155.175 242.178H20.9199C20.2122 242.155 19.5412 241.853 19.0488 241.337C18.5563 240.821 18.281 240.13 18.281 239.412C18.281 238.693 18.5563 238.003 19.0488 237.487C19.5412 236.971 20.2122 236.669 20.9199 236.646H155.175C155.883 236.669 156.554 236.971 157.046 237.487C157.539 238.003 157.814 238.693 157.814 239.412C157.814 240.13 157.539 240.821 157.046 241.337C156.554 241.853 155.883 242.155 155.175 242.178Z" fill="#C37FDB"/>
</g>
<g filter="url(#filter20_i_37_1604)">
<path d="M136.396 116.717H39.696C38.5427 116.717 37.4367 116.252 36.6212 115.425C35.8058 114.597 35.3477 113.475 35.3477 112.305V21.8892C35.3477 20.7191 35.8058 19.5969 36.6212 18.7695C37.4367 17.9421 38.5427 17.4772 39.696 17.4772H136.396C137.55 17.4772 138.656 17.9421 139.471 18.7695C140.287 19.5969 140.745 20.7191 140.745 21.8892V112.317C140.742 113.485 140.282 114.604 139.467 115.429C138.652 116.254 137.548 116.717 136.396 116.717ZM39.696 20.4303C39.3115 20.4303 38.9429 20.5853 38.671 20.8611C38.3992 21.1369 38.2465 21.5109 38.2465 21.901V112.317C38.2465 112.707 38.3992 113.081 38.671 113.357C38.9429 113.632 39.3115 113.787 39.696 113.787H136.396C136.781 113.787 137.15 113.632 137.421 113.357C137.693 113.081 137.846 112.707 137.846 112.317V21.8892C137.846 21.4991 137.693 21.1251 137.421 20.8493C137.15 20.5735 136.781 20.4185 136.396 20.4185L39.696 20.4303Z" fill="#C37FDB"/>
</g>
<g filter="url(#filter21_d_37_1604)">
<path d="M42.0035 176.237L44.8039 181.993L51.0625 182.917L46.5345 187.396L47.6042 193.723L42.0035 190.735L36.4058 193.723L37.4726 187.396L32.9446 182.917L39.2032 181.993L42.0035 176.237Z" fill="#C37FDB"/>
</g>
<g filter="url(#filter22_d_37_1604)">
<path d="M64.9335 176.237L67.7338 181.993L73.9953 182.917L69.4644 187.396L70.5341 193.723L64.9335 190.735L59.3357 193.723L60.4054 187.396L55.8745 182.917L62.1361 181.993L64.9335 176.237Z" fill="#C37FDB"/>
</g>
<g filter="url(#filter23_d_37_1604)">
<path d="M87.8634 176.237L90.6637 181.993L96.9253 182.917L92.3943 187.396L93.464 193.723L87.8634 190.735L82.2657 193.723L83.3354 187.396L78.8044 182.917L85.066 181.993L87.8634 176.237Z" fill="#C37FDB"/>
</g>
<g filter="url(#filter24_d_37_1604)">
<path d="M110.796 176.237L113.594 181.993L119.855 182.917L115.325 187.396L116.394 193.723L110.796 190.735L105.196 193.723L106.266 187.396L101.735 182.917L107.996 181.993L110.796 176.237Z" fill="#C37FDB"/>
</g>
<g filter="url(#filter25_d_37_1604)">
<path d="M134.092 176.237L136.889 181.993L143.151 182.917L138.62 187.396L139.69 193.723L134.092 190.735L128.491 193.723L129.561 187.396L125.03 182.917L131.292 181.993L134.092 176.237Z" fill="#C37FDB"/>
</g>
<defs>
<filter id="filter0_i_37_1604" x="0.0539551" y="0.161804" width="172.132" height="290.265" filterUnits="userSpaceOnUse" color-interpolation-filters="sRGB">
<feFlood flood-opacity="0" result="BackgroundImageFix"/>
<feBlend mode="normal" in="SourceGraphic" in2="BackgroundImageFix" result="shape"/>
<feColorMatrix in="SourceAlpha" type="matrix" values="0 0 0 0 0 0 0 0 0 0 0 0 0 0 0 0 0 0 127 0" result="hardAlpha"/>
<feOffset dy="4"/>
<feGaussianBlur stdDeviation="2"/>
<feComposite in2="hardAlpha" operator="arithmetic" k2="-1" k3="1"/>
<feColorMatrix type="matrix" values="0 0 0 0 0 0 0 0 0 0 0 0 0 0 0 0 0 0 0.25 0"/>
<feBlend mode="normal" in2="shape" result="effect1_innerShadow_37_1604"/>
</filter>
<filter id="filter1_i_37_1604" x="8" y="8" width="157.461" height="273.523" filterUnits="userSpaceOnUse" color-interpolation-filters="sRGB">
<feFlood flood-opacity="0" result="BackgroundImageFix"/>
<feBlend mode="normal" in="SourceGraphic" in2="BackgroundImageFix" result="shape"/>
<feColorMatrix in="SourceAlpha" type="matrix" values="0 0 0 0 0 0 0 0 0 0 0 0 0 0 0 0 0 0 127 0" result="hardAlpha"/>
<feOffset dy="4"/>
<feGaussianBlur stdDeviation="2"/>
<feComposite in2="hardAlpha" operator="arithmetic" k2="-1" k3="1"/>
<feColorMatrix type="matrix" values="0 0 0 0 0 0 0 0 0 0 0 0 0 0 0 0 0 0 0.25 0"/>
<feBlend mode="normal" in2="shape" result="effect1_innerShadow_37_1604"/>
</filter>
<filter id="filter2_i_37_1604" x="69.9294" y="29.9428" width="38.0034" height="36.6629" filterUnits="userSpaceOnUse" color-interpolation-filters="sRGB">
<feFlood flood-opacity="0" result="BackgroundImageFix"/>
<feBlend mode="normal" in="SourceGraphic" in2="BackgroundImageFix" result="shape"/>
<feColorMatrix in="SourceAlpha" type="matrix" values="0 0 0 0 0 0 0 0 0 0 0 0 0 0 0 0 0 0 127 0" result="hardAlpha"/>
<feOffset dy="4"/>
<feGaussianBlur stdDeviation="4"/>
<feComposite in2="hardAlpha" operator="arithmetic" k2="-1" k3="1"/>
<feColorMatrix type="matrix" values="0 0 0 0 0 0 0 0 0 0 0 0 0 0 0 0 0 0 0.46 0"/>
<feBlend mode="normal" in2="shape" result="effect1_innerShadow_37_1604"/>
</filter>
<filter id="filter3_i_37_1604" x="54.1772" y="90.2921" width="69.3767" height="28.644" filterUnits="userSpaceOnUse" color-interpolation-filters="sRGB">
<feFlood flood-opacity="0" result="BackgroundImageFix"/>
<feBlend mode="normal" in="SourceGraphic" in2="BackgroundImageFix" result="shape"/>
<feColorMatrix in="SourceAlpha" type="matrix" values="0 0 0 0 0 0 0 0 0 0 0 0 0 0 0 0 0 0 127 0" result="hardAlpha"/>
<feOffset dy="4"/>
<feGaussianBlur stdDeviation="4"/>
<feComposite in2="hardAlpha" operator="arithmetic" k2="-1" k3="1"/>
<feColorMatrix type="matrix" values="0 0 0 0 0 0 0 0 0 0 0 0 0 0 0 0 0 0 0.46 0"/>
<feBlend mode="normal" in2="shape" result="effect1_innerShadow_37_1604"/>
</filter>
<filter id="filter4_i_37_1604" x="79.5264" y="58.6555" width="18.1672" height="48.1331" filterUnits="userSpaceOnUse" color-interpolation-filters="sRGB">
<feFlood flood-opacity="0" result="BackgroundImageFix"/>
<feBlend mode="normal" in="SourceGraphic" in2="BackgroundImageFix" result="shape"/>
<feColorMatrix in="SourceAlpha" type="matrix" values="0 0 0 0 0 0 0 0 0 0 0 0 0 0 0 0 0 0 127 0" result="hardAlpha"/>
<feOffset dy="4"/>
<feGaussianBlur stdDeviation="4"/>
<feComposite in2="hardAlpha" operator="arithmetic" k2="-1" k3="1"/>
<feColorMatrix type="matrix" values="0 0 0 0 0 0 0 0 0 0 0 0 0 0 0 0 0 0 0.46 0"/>
<feBlend mode="normal" in2="shape" result="effect1_innerShadow_37_1604"/>
</filter>
<filter id="filter5_i_37_1604" x="79.8193" y="58.6496" width="17.5149" height="33.1364" filterUnits="userSpaceOnUse" color-interpolation-filters="sRGB">
<feFlood flood-opacity="0" result="BackgroundImageFix"/>
<feBlend mode="normal" in="SourceGraphic" in2="BackgroundImageFix" result="shape"/>
<feColorMatrix in="SourceAlpha" type="matrix" values="0 0 0 0 0 0 0 0 0 0 0 0 0 0 0 0 0 0 127 0" result="hardAlpha"/>
<feOffset dy="4"/>
<feGaussianBlur stdDeviation="4"/>
<feComposite in2="hardAlpha" operator="arithmetic" k2="-1" k3="1"/>
<feColorMatrix type="matrix" values="0 0 0 0 0 0 0 0 0 0 0 0 0 0 0 0 0 0 0.46 0"/>
<feBlend mode="normal" in2="shape" result="effect1_innerShadow_37_1604"/>
</filter>
<filter id="filter6_i_37_1604" x="71.0415" y="91.7569" width="35.7664" height="27.5103" filterUnits="userSpaceOnUse" color-interpolation-filters="sRGB">
<feFlood flood-opacity="0" result="BackgroundImageFix"/>
<feBlend mode="normal" in="SourceGraphic" in2="BackgroundImageFix" result="shape"/>
<feColorMatrix in="SourceAlpha" type="matrix" values="0 0 0 0 0 0 0 0 0 0 0 0 0 0 0 0 0 0 127 0" result="hardAlpha"/>
<feOffset dy="4"/>
<feGaussianBlur stdDeviation="4"/>
<feComposite in2="hardAlpha" operator="arithmetic" k2="-1" k3="1"/>
<feColorMatrix type="matrix" values="0 0 0 0 0 0 0 0 0 0 0 0 0 0 0 0 0 0 0.46 0"/>
<feBlend mode="normal" in2="shape" result="effect1_innerShadow_37_1604"/>
</filter>
<filter id="filter7_i_37_1604" x="80.7441" y="97.2425" width="15.9465" height="22.0243" filterUnits="userSpaceOnUse" color-interpolation-filters="sRGB">
<feFlood flood-opacity="0" result="BackgroundImageFix"/>
<feBlend mode="normal" in="SourceGraphic" in2="BackgroundImageFix" result="shape"/>
<feColorMatrix in="SourceAlpha" type="matrix" values="0 0 0 0 0 0 0 0 0 0 0 0 0 0 0 0 0 0 127 0" result="hardAlpha"/>
<feOffset dy="4"/>
<feGaussianBlur stdDeviation="4"/>
<feComposite in2="hardAlpha" operator="arithmetic" k2="-1" k3="1"/>
<feColorMatrix type="matrix" values="0 0 0 0 0 0 0 0 0 0 0 0 0 0 0 0 0 0 0.46 0"/>
<feBlend mode="normal" in2="shape" result="effect1_innerShadow_37_1604"/>
</filter>
<filter id="filter8_i_37_1604" x="72.1719" y="83.7154" width="32.9282" height="26.5951" filterUnits="userSpaceOnUse" color-interpolation-filters="sRGB">
<feFlood flood-opacity="0" result="BackgroundImageFix"/>
<feBlend mode="normal" in="SourceGraphic" in2="BackgroundImageFix" result="shape"/>
<feColorMatrix in="SourceAlpha" type="matrix" values="0 0 0 0 0 0 0 0 0 0 0 0 0 0 0 0 0 0 127 0" result="hardAlpha"/>
<feOffset dy="4"/>
<feGaussianBlur stdDeviation="4"/>
<feComposite in2="hardAlpha" operator="arithmetic" k2="-1" k3="1"/>
<feColorMatrix type="matrix" values="0 0 0 0 0 0 0 0 0 0 0 0 0 0 0 0 0 0 0.46 0"/>
<feBlend mode="normal" in2="shape" result="effect1_innerShadow_37_1604"/>
</filter>
<filter id="filter9_i_37_1604" x="73.2068" y="36.8046" width="31.9919" height="48.2313" filterUnits="userSpaceOnUse" color-interpolation-filters="sRGB">
<feFlood flood-opacity="0" result="BackgroundImageFix"/>
<feBlend mode="normal" in="SourceGraphic" in2="BackgroundImageFix" result="shape"/>
<feColorMatrix in="SourceAlpha" type="matrix" values="0 0 0 0 0 0 0 0 0 0 0 0 0 0 0 0 0 0 127 0" result="hardAlpha"/>
<feOffset dy="4"/>
<feGaussianBlur stdDeviation="4"/>
<feComposite in2="hardAlpha" operator="arithmetic" k2="-1" k3="1"/>
<feColorMatrix type="matrix" values="0 0 0 0 0 0 0 0 0 0 0 0 0 0 0 0 0 0 0.46 0"/>
<feBlend mode="normal" in2="shape" result="effect1_innerShadow_37_1604"/>
</filter>
<filter id="filter10_i_37_1604" x="66.3718" y="54.3412" width="9.33911" height="16.1434" filterUnits="userSpaceOnUse" color-interpolation-filters="sRGB">
<feFlood flood-opacity="0" result="BackgroundImageFix"/>
<feBlend mode="normal" in="SourceGraphic" in2="BackgroundImageFix" result="shape"/>
<feColorMatrix in="SourceAlpha" type="matrix" values="0 0 0 0 0 0 0 0 0 0 0 0 0 0 0 0 0 0 127 0" result="hardAlpha"/>
<feOffset dy="4"/>
<feGaussianBlur stdDeviation="4"/>
<feComposite in2="hardAlpha" operator="arithmetic" k2="-1" k3="1"/>
<feColorMatrix type="matrix" values="0 0 0 0 0 0 0 0 0 0 0 0 0 0 0 0 0 0 0.46 0"/>
<feBlend mode="normal" in2="shape" result="effect1_innerShadow_37_1604"/>
</filter>
<filter id="filter11_i_37_1604" x="101.964" y="54.3412" width="9.3374" height="16.1434" filterUnits="userSpaceOnUse" color-interpolation-filters="sRGB">
<feFlood flood-opacity="0" result="BackgroundImageFix"/>
<feBlend mode="normal" in="SourceGraphic" in2="BackgroundImageFix" result="shape"/>
<feColorMatrix in="SourceAlpha" type="matrix" values="0 0 0 0 0 0 0 0 0 0 0 0 0 0 0 0 0 0 127 0" result="hardAlpha"/>
<feOffset dy="4"/>
<feGaussianBlur stdDeviation="4"/>
<feComposite in2="hardAlpha" operator="arithmetic" k2="-1" k3="1"/>
<feColorMatrix type="matrix" values="0 0 0 0 0 0 0 0 0 0 0 0 0 0 0 0 0 0 0.46 0"/>
<feBlend mode="normal" in2="shape" result="effect1_innerShadow_37_1604"/>
</filter>
<filter id="filter12_i_37_1604" x="82.1064" y="67.9971" width="14.1929" height="9.22083" filterUnits="userSpaceOnUse" color-interpolation-filters="sRGB">
<feFlood flood-opacity="0" result="BackgroundImageFix"/>
<feBlend mode="normal" in="SourceGraphic" in2="BackgroundImageFix" result="shape"/>
<feColorMatrix in="SourceAlpha" type="matrix" values="0 0 0 0 0 0 0 0 0 0 0 0 0 0 0 0 0 0 127 0" result="hardAlpha"/>
<feOffset dy="4"/>
<feGaussianBlur stdDeviation="4"/>
<feComposite in2="hardAlpha" operator="arithmetic" k2="-1" k3="1"/>
<feColorMatrix type="matrix" values="0 0 0 0 0 0 0 0 0 0 0 0 0 0 0 0 0 0 0.46 0"/>
<feBlend mode="normal" in2="shape" result="effect1_innerShadow_37_1604"/>
</filter>
<filter id="filter13_i_37_1604" x="73.1169" y="34.7858" width="32.8442" height="32.6413" filterUnits="userSpaceOnUse" color-interpolation-filters="sRGB">
<feFlood flood-opacity="0" result="BackgroundImageFix"/>
<feBlend mode="normal" in="SourceGraphic" in2="BackgroundImageFix" result="shape"/>
<feColorMatrix in="SourceAlpha" type="matrix" values="0 0 0 0 0 0 0 0 0 0 0 0 0 0 0 0 0 0 127 0" result="hardAlpha"/>
<feOffset dy="4"/>
<feGaussianBlur stdDeviation="4"/>
<feComposite in2="hardAlpha" operator="arithmetic" k2="-1" k3="1"/>
<feColorMatrix type="matrix" values="0 0 0 0 0 0 0 0 0 0 0 0 0 0 0 0 0 0 0.46 0"/>
<feBlend mode="normal" in2="shape" result="effect1_innerShadow_37_1604"/>
</filter>
<filter id="filter14_i_37_1604" x="101.024" y="52.5729" width="4.06323" height="16.5985" filterUnits="userSpaceOnUse" color-interpolation-filters="sRGB">
<feFlood flood-opacity="0" result="BackgroundImageFix"/>
<feBlend mode="normal" in="SourceGraphic" in2="BackgroundImageFix" result="shape"/>
<feColorMatrix in="SourceAlpha" type="matrix" values="0 0 0 0 0 0 0 0 0 0 0 0 0 0 0 0 0 0 127 0" result="hardAlpha"/>
<feOffset dy="4"/>
<feGaussianBlur stdDeviation="4"/>
<feComposite in2="hardAlpha" operator="arithmetic" k2="-1" k3="1"/>
<feColorMatrix type="matrix" values="0 0 0 0 0 0 0 0 0 0 0 0 0 0 0 0 0 0 0.46 0"/>
<feBlend mode="normal" in2="shape" result="effect1_innerShadow_37_1604"/>
</filter>
<filter id="filter15_i_37_1604" x="46.7236" y="139.625" width="82.8787" height="13.5357" filterUnits="userSpaceOnUse" color-interpolation-filters="sRGB">
<feFlood flood-opacity="0" result="BackgroundImageFix"/>
<feBlend mode="normal" in="SourceGraphic" in2="BackgroundImageFix" result="shape"/>
<feColorMatrix in="SourceAlpha" type="matrix" values="0 0 0 0 0 0 0 0 0 0 0 0 0 0 0 0 0 0 127 0" result="hardAlpha"/>
<feOffset dy="4"/>
<feGaussianBlur stdDeviation="2"/>
<feComposite in2="hardAlpha" operator="arithmetic" k2="-1" k3="1"/>
<feColorMatrix type="matrix" values="0 0 0 0 0 0 0 0 0 0 0 0 0 0 0 0 0 0 0.25 0"/>
<feBlend mode="normal" in2="shape" result="effect1_innerShadow_37_1604"/>
</filter>
<filter id="filter16_i_37_1604" x="55.6362" y="154.27" width="64.5896" height="13.5357" filterUnits="userSpaceOnUse" color-interpolation-filters="sRGB">
<feFlood flood-opacity="0" result="BackgroundImageFix"/>
<feBlend mode="normal" in="SourceGraphic" in2="BackgroundImageFix" result="shape"/>
<feColorMatrix in="SourceAlpha" type="matrix" values="0 0 0 0 0 0 0 0 0 0 0 0 0 0 0 0 0 0 127 0" result="hardAlpha"/>
<feOffset dy="4"/>
<feGaussianBlur stdDeviation="2"/>
<feComposite in2="hardAlpha" operator="arithmetic" k2="-1" k3="1"/>
<feColorMatrix type="matrix" values="0 0 0 0 0 0 0 0 0 0 0 0 0 0 0 0 0 0 0.25 0"/>
<feBlend mode="normal" in2="shape" result="effect1_innerShadow_37_1604"/>
</filter>
<filter id="filter17_i_37_1604" x="18.1951" y="210.939" width="139.705" height="9.52966" filterUnits="userSpaceOnUse" color-interpolation-filters="sRGB">
<feFlood flood-opacity="0" result="BackgroundImageFix"/>
<feBlend mode="normal" in="SourceGraphic" in2="BackgroundImageFix" result="shape"/>
<feColorMatrix in="SourceAlpha" type="matrix" values="0 0 0 0 0 0 0 0 0 0 0 0 0 0 0 0 0 0 127 0" result="hardAlpha"/>
<feOffset dy="4"/>
<feGaussianBlur stdDeviation="2"/>
<feComposite in2="hardAlpha" operator="arithmetic" k2="-1" k3="1"/>
<feColorMatrix type="matrix" values="0 0 0 0 0 0 0 0 0 0 0 0 0 0 0 0 0 0 0.25 0"/>
<feBlend mode="normal" in2="shape" result="effect1_innerShadow_37_1604"/>
</filter>
<filter id="filter18_i_37_1604" x="18.1951" y="223.792" width="139.705" height="9.52963" filterUnits="userSpaceOnUse" color-interpolation-filters="sRGB">
<feFlood flood-opacity="0" result="BackgroundImageFix"/>
<feBlend mode="normal" in="SourceGraphic" in2="BackgroundImageFix" result="shape"/>
<feColorMatrix in="SourceAlpha" type="matrix" values="0 0 0 0 0 0 0 0 0 0 0 0 0 0 0 0 0 0 127 0" result="hardAlpha"/>
<feOffset dy="4"/>
<feGaussianBlur stdDeviation="2"/>
<feComposite in2="hardAlpha" operator="arithmetic" k2="-1" k3="1"/>
<feColorMatrix type="matrix" values="0 0 0 0 0 0 0 0 0 0 0 0 0 0 0 0 0 0 0.25 0"/>
<feBlend mode="normal" in2="shape" result="effect1_innerShadow_37_1604"/>
</filter>
<filter id="filter19_i_37_1604" x="18.281" y="236.646" width="139.533" height="9.53256" filterUnits="userSpaceOnUse" color-interpolation-filters="sRGB">
<feFlood flood-opacity="0" result="BackgroundImageFix"/>
<feBlend mode="normal" in="SourceGraphic" in2="BackgroundImageFix" result="shape"/>
<feColorMatrix in="SourceAlpha" type="matrix" values="0 0 0 0 0 0 0 0 0 0 0 0 0 0 0 0 0 0 127 0" result="hardAlpha"/>
<feOffset dy="4"/>
<feGaussianBlur stdDeviation="2"/>
<feComposite in2="hardAlpha" operator="arithmetic" k2="-1" k3="1"/>
<feColorMatrix type="matrix" values="0 0 0 0 0 0 0 0 0 0 0 0 0 0 0 0 0 0 0.25 0"/>
<feBlend mode="normal" in2="shape" result="effect1_innerShadow_37_1604"/>
</filter>
<filter id="filter20_i_37_1604" x="35.3477" y="17.4772" width="105.397" height="103.24" filterUnits="userSpaceOnUse" color-interpolation-filters="sRGB">
<feFlood flood-opacity="0" result="BackgroundImageFix"/>
<feBlend mode="normal" in="SourceGraphic" in2="BackgroundImageFix" result="shape"/>
<feColorMatrix in="SourceAlpha" type="matrix" values="0 0 0 0 0 0 0 0 0 0 0 0 0 0 0 0 0 0 127 0" result="hardAlpha"/>
<feOffset dy="4"/>
<feGaussianBlur stdDeviation="2"/>
<feComposite in2="hardAlpha" operator="arithmetic" k2="-1" k3="1"/>
<feColorMatrix type="matrix" values="0 0 0 0 0 0 0 0 0 0 0 0 0 0 0 0 0 0 0.49 0"/>
<feBlend mode="normal" in2="shape" result="effect1_innerShadow_37_1604"/>
</filter>
<filter id="filter21_d_37_1604" x="26.9446" y="173.237" width="26.1179" height="25.4861" filterUnits="userSpaceOnUse" color-interpolation-filters="sRGB">
<feFlood flood-opacity="0" result="BackgroundImageFix"/>
<feColorMatrix in="SourceAlpha" type="matrix" values="0 0 0 0 0 0 0 0 0 0 0 0 0 0 0 0 0 0 127 0" result="hardAlpha"/>
<feOffset dx="-2" dy="1"/>
<feGaussianBlur stdDeviation="2"/>
<feComposite in2="hardAlpha" operator="out"/>
<feColorMatrix type="matrix" values="0 0 0 0 0 0 0 0 0 0 0 0 0 0 0 0 0 0 0.44 0"/>
<feBlend mode="normal" in2="BackgroundImageFix" result="effect1_dropShadow_37_1604"/>
<feBlend mode="normal" in="SourceGraphic" in2="effect1_dropShadow_37_1604" result="shape"/>
</filter>
<filter id="filter22_d_37_1604" x="49.8745" y="173.237" width="26.1208" height="25.4861" filterUnits="userSpaceOnUse" color-interpolation-filters="sRGB">
<feFlood flood-opacity="0" result="BackgroundImageFix"/>
<feColorMatrix in="SourceAlpha" type="matrix" values="0 0 0 0 0 0 0 0 0 0 0 0 0 0 0 0 0 0 127 0" result="hardAlpha"/>
<feOffset dx="-2" dy="1"/>
<feGaussianBlur stdDeviation="2"/>
<feComposite in2="hardAlpha" operator="out"/>
<feColorMatrix type="matrix" values="0 0 0 0 0 0 0 0 0 0 0 0 0 0 0 0 0 0 0.44 0"/>
<feBlend mode="normal" in2="BackgroundImageFix" result="effect1_dropShadow_37_1604"/>
<feBlend mode="normal" in="SourceGraphic" in2="effect1_dropShadow_37_1604" result="shape"/>
</filter>
<filter id="filter23_d_37_1604" x="72.8044" y="173.237" width="26.1208" height="25.4861" filterUnits="userSpaceOnUse" color-interpolation-filters="sRGB">
<feFlood flood-opacity="0" result="BackgroundImageFix"/>
<feColorMatrix in="SourceAlpha" type="matrix" values="0 0 0 0 0 0 0 0 0 0 0 0 0 0 0 0 0 0 127 0" result="hardAlpha"/>
<feOffset dx="-2" dy="1"/>
<feGaussianBlur stdDeviation="2"/>
<feComposite in2="hardAlpha" operator="out"/>
<feColorMatrix type="matrix" values="0 0 0 0 0 0 0 0 0 0 0 0 0 0 0 0 0 0 0.44 0"/>
<feBlend mode="normal" in2="BackgroundImageFix" result="effect1_dropShadow_37_1604"/>
<feBlend mode="normal" in="SourceGraphic" in2="effect1_dropShadow_37_1604" result="shape"/>
</filter>
<filter id="filter24_d_37_1604" x="95.7346" y="173.237" width="26.1208" height="25.4861" filterUnits="userSpaceOnUse" color-interpolation-filters="sRGB">
<feFlood flood-opacity="0" result="BackgroundImageFix"/>
<feColorMatrix in="SourceAlpha" type="matrix" values="0 0 0 0 0 0 0 0 0 0 0 0 0 0 0 0 0 0 127 0" result="hardAlpha"/>
<feOffset dx="-2" dy="1"/>
<feGaussianBlur stdDeviation="2"/>
<feComposite in2="hardAlpha" operator="out"/>
<feColorMatrix type="matrix" values="0 0 0 0 0 0 0 0 0 0 0 0 0 0 0 0 0 0 0.44 0"/>
<feBlend mode="normal" in2="BackgroundImageFix" result="effect1_dropShadow_37_1604"/>
<feBlend mode="normal" in="SourceGraphic" in2="effect1_dropShadow_37_1604" result="shape"/>
</filter>
<filter id="filter25_d_37_1604" x="119.03" y="173.237" width="26.1208" height="25.4861" filterUnits="userSpaceOnUse" color-interpolation-filters="sRGB">
<feFlood flood-opacity="0" result="BackgroundImageFix"/>
<feColorMatrix in="SourceAlpha" type="matrix" values="0 0 0 0 0 0 0 0 0 0 0 0 0 0 0 0 0 0 127 0" result="hardAlpha"/>
<feOffset dx="-2" dy="1"/>
<feGaussianBlur stdDeviation="2"/>
<feComposite in2="hardAlpha" operator="out"/>
<feColorMatrix type="matrix" values="0 0 0 0 0 0 0 0 0 0 0 0 0 0 0 0 0 0 0.44 0"/>
<feBlend mode="normal" in2="BackgroundImageFix" result="effect1_dropShadow_37_1604"/>
<feBlend mode="normal" in="SourceGraphic" in2="effect1_dropShadow_37_1604" result="shape"/>
</filter>
</defs>
</svg>
