<svg width="127" height="211" viewBox="0 0 127 211" fill="none" xmlns="http://www.w3.org/2000/svg">
<g filter="url(#filter0_i_37_1561)">
<path d="M126.948 0.501709H0.922363V210.09H126.948V0.501709Z" fill="#C37FDB"/>
</g>
<g filter="url(#filter1_i_37_1561)">
<path d="M122.805 4.77246H7.52319V202.102H122.805V4.77246Z" fill="white"/>
</g>
<g filter="url(#filter2_i_37_1561)">
<path d="M42.0054 83.9024C46.3537 74.4284 53.6878 71.3959 65.7471 71.3959C80.1081 71.3959 87.564 76.6903 89.6773 84.3583C63.9614 84.7171 42.0054 83.9024 42.0054 83.9024Z" fill="#9BD6E8"/>
</g>
<g filter="url(#filter3_i_37_1561)">
<path d="M60.7349 25.3263C54.6472 27.0558 54.9226 30.5236 52.9079 33.7384C50.8932 36.9533 46.4782 39.1004 45.9506 41.2446C45.423 43.3889 47.3073 47.8567 45.081 50.3627C42.8546 52.8687 42.0864 54.1129 42.9677 56.6159C43.849 59.1189 45.7854 63.0485 45.9622 63.5868C46.1391 64.125 48.6031 67.8752 51.5976 68.4105C54.5922 68.9458 60.2276 69.84 63.0453 71.0901C65.863 72.3401 74.9306 69.49 79.9544 69.6694C84.9781 69.8488 88.4075 66.0869 88.0567 63.5868C87.7059 61.0867 91.7643 56.0806 91.7556 51.7922C91.7556 47.1861 86.471 43.7506 85.0622 40.7123C83.6533 37.6739 85.2158 32.3149 79.9457 29.15C76.6062 27.1411 74.3103 27.3205 71.6694 26.4264C69.0285 25.5322 64.6077 24.2292 60.7349 25.3263Z" fill="#3A384D"/>
</g>
<g filter="url(#filter4_i_37_1561)">
<path d="M68.1299 78.9581C66.7558 81.017 65.747 81.1023 64.257 78.9581C63.0685 77.2521 60.7349 73.3696 60.7349 71.4136V51.7981C60.7372 50.851 61.109 49.9433 61.769 49.2737C62.429 48.604 63.3236 48.2267 64.257 48.2244H68.1299C69.0638 48.2259 69.9591 48.6028 70.6197 49.2726C71.2804 49.9424 71.6526 50.8505 71.6549 51.7981V71.4166C71.6549 73.3784 69.3648 77.1109 68.1299 78.9581Z" fill="#F09959"/>
</g>
<g filter="url(#filter5_i_37_1561)">
<path d="M68.1299 48.2214H64.257C63.3231 48.2238 62.4281 48.6014 61.768 49.2718C61.1079 49.9421 60.7364 50.8505 60.7349 51.7981V69.2988C65.0832 70.7047 69.0546 67.9105 71.6549 64.7633V51.7981C71.6534 50.85 71.2815 49.9411 70.6208 49.2707C69.96 48.6003 69.0643 48.223 68.1299 48.2214Z" fill="#E38540"/>
</g>
<g filter="url(#filter6_i_37_1561)">
<path d="M66.1934 64.6104C72.6614 64.6104 77.9048 57.361 77.9048 48.4185C77.9048 39.476 72.6614 32.2267 66.1934 32.2267C59.7253 32.2267 54.4819 39.476 54.4819 48.4185C54.4819 57.361 59.7253 64.6104 66.1934 64.6104Z" fill="#F09959"/>
</g>
<g filter="url(#filter7_i_37_1561)">
<path d="M71.6549 35.5326C64.257 48.2214 53.3369 46.9684 53.3369 46.9684C53.3369 46.9684 53.6007 30.1706 62.2741 29.2765C70.9475 28.3823 76.0553 31.9236 77.8178 37.7445C79.5804 43.5653 77.8178 47.4155 77.8178 47.4155C75.9755 45.846 74.5269 43.855 73.5913 41.6064C72.7937 39.635 72.1463 37.6045 71.6549 35.5326Z" fill="#3A384D"/>
</g>
<g filter="url(#filter8_i_37_1561)">
<path d="M54.8874 53.7269C56.4246 52.9859 56.7825 50.4881 55.6868 48.1477C54.591 45.8074 52.4566 44.5109 50.9194 45.2518C49.3822 45.9928 49.0242 48.4906 50.12 50.8309C51.2157 53.1713 53.3501 54.4678 54.8874 53.7269Z" fill="#F09959"/>
</g>
<g filter="url(#filter9_i_37_1561)">
<path d="M76.1771 48.1684C75.0842 50.5215 75.4407 53.0069 76.98 53.7569C78.5193 54.5069 80.65 53.201 81.7458 50.8627C82.8416 48.5243 82.485 46.0242 80.9457 45.2742C79.4064 44.5242 77.2728 45.8301 76.1771 48.1684Z" fill="#F09959"/>
</g>
<g filter="url(#filter10_i_37_1561)">
<path d="M70.5966 57.2012C70.5966 57.2012 68.6253 59.7925 66.1932 59.7925C63.761 59.7925 61.7898 57.2012 61.7898 57.2012H70.5966Z" fill="white"/>
</g>
<g filter="url(#filter11_i_37_1561)">
<path d="M80.1368 109.589H50.5684C49.6734 109.562 48.8239 109.183 48.2001 108.532C47.5762 107.88 47.2273 107.007 47.2273 106.099C47.2273 105.191 47.5762 104.318 48.2001 103.666C48.8239 103.015 49.6734 102.635 50.5684 102.609H80.1368C81.0318 102.635 81.8813 103.015 82.5051 103.666C83.129 104.318 83.4779 105.191 83.4779 106.099C83.4779 107.007 83.129 107.88 82.5051 108.532C81.8813 109.183 81.0318 109.562 80.1368 109.589Z" fill="#C37FDB"/>
</g>
<g filter="url(#filter12_i_37_1561)">
<path d="M85.5521 120.31H45.1419C44.2469 120.283 43.3974 119.904 42.7736 119.253C42.1497 118.601 41.8008 117.728 41.8008 116.82C41.8008 115.912 42.1497 115.039 42.7736 114.387C43.3974 113.736 44.2469 113.356 45.1419 113.33H85.5521C86.447 113.356 87.2966 113.736 87.9204 114.387C88.5442 115.039 88.8932 115.912 88.8932 116.82C88.8932 117.728 88.5442 118.601 87.9204 119.253C87.2966 119.904 86.447 120.283 85.5521 120.31Z" fill="#C37FDB"/>
</g>
<g filter="url(#filter13_i_37_1561)">
<path d="M114.494 158.861H16.1993C15.6831 158.842 15.1947 158.619 14.8364 158.242C14.4782 157.864 14.2781 157.361 14.2781 156.836C14.2781 156.312 14.4782 155.809 14.8364 155.431C15.1947 155.053 15.6831 154.831 16.1993 154.811H114.494C115.01 154.831 115.499 155.053 115.857 155.431C116.215 155.809 116.415 156.312 116.415 156.836C116.415 157.361 116.215 157.864 115.857 158.242C115.499 158.619 115.01 158.842 114.494 158.861Z" fill="#C37FDB"/>
</g>
<g filter="url(#filter14_i_37_1561)">
<path d="M114.494 168.274H16.1993C15.6831 168.254 15.1947 168.032 14.8364 167.654C14.4782 167.276 14.2781 166.773 14.2781 166.249C14.2781 165.724 14.4782 165.221 14.8364 164.843C15.1947 164.466 15.6831 164.243 16.1993 164.223H114.494C115.01 164.243 115.499 164.466 115.857 164.843C116.215 165.221 116.415 165.724 116.415 166.249C116.415 166.773 116.215 167.276 115.857 167.654C115.499 168.032 115.01 168.254 114.494 168.274Z" fill="#C37FDB"/>
</g>
<g filter="url(#filter15_i_37_1561)">
<path d="M114.494 177.686H16.1993C15.6831 177.666 15.1947 177.444 14.8364 177.066C14.4782 176.689 14.2781 176.185 14.2781 175.661C14.2781 175.137 14.4782 174.633 14.8364 174.255C15.1947 173.878 15.6831 173.656 16.1993 173.636H114.494C115.01 173.656 115.499 173.878 115.857 174.255C116.215 174.633 116.415 175.137 116.415 175.661C116.415 176.185 116.215 176.689 115.857 177.066C115.499 177.444 115.01 177.666 114.494 177.686Z" fill="#C37FDB"/>
</g>
<g filter="url(#filter16_i_37_1561)">
<path d="M100.745 86.2289H29.949C29.0043 86.2281 28.0985 85.847 27.4306 85.1693C26.7626 84.4915 26.387 83.5726 26.3862 82.6141V16.4083C26.387 15.4498 26.7626 14.5308 27.4306 13.8531C28.0985 13.1753 29.0043 12.7942 29.949 12.7934H100.745C101.688 12.7973 102.591 13.1798 103.256 13.8572C103.921 14.5346 104.295 15.4518 104.296 16.4083V82.6141C104.295 83.5705 103.921 84.4877 103.256 85.1651C102.591 85.8426 101.688 86.225 100.745 86.2289ZM29.949 15.7347C29.7736 15.737 29.606 15.8087 29.482 15.9345C29.358 16.0604 29.2874 16.2304 29.2851 16.4083V82.6141C29.2874 82.792 29.358 82.962 29.482 83.0878C29.606 83.2136 29.7736 83.2853 29.949 83.2876H100.745C100.92 83.2853 101.088 83.2136 101.212 83.0878C101.336 82.962 101.407 82.792 101.409 82.6141V16.4083C101.407 16.2304 101.336 16.0604 101.212 15.9345C101.088 15.8087 100.92 15.737 100.745 15.7347H29.949Z" fill="#C37FDB"/>
</g>
<g filter="url(#filter17_i_37_1561)">
<path d="M40.1643 129.413L42.2139 133.628L46.797 134.305L43.4807 137.584L44.2633 142.214L40.1643 140.028L36.0653 142.214L36.848 137.584L33.5317 134.305L38.1148 133.628L40.1643 129.413Z" fill="#C37FDB"/>
</g>
<g filter="url(#filter18_i_37_1561)">
<path d="M56.9517 129.413L59.0012 133.628L63.5843 134.305L60.268 137.584L61.0507 142.214L56.9517 140.028L52.8527 142.214L53.6354 137.584L50.3191 134.305L54.9022 133.628L56.9517 129.413Z" fill="#C37FDB"/>
</g>
<g filter="url(#filter19_i_37_1561)">
<path d="M73.742 129.413L75.7915 133.628L80.3746 134.305L77.0583 137.584L77.841 142.214L73.742 140.028L69.643 142.214L70.4257 137.584L67.1094 134.305L71.6925 133.628L73.742 129.413Z" fill="#C37FDB"/>
</g>
<g filter="url(#filter20_i_37_1561)">
<path d="M90.5296 129.413L92.5791 133.628L97.1622 134.305L93.8459 137.584L94.6286 142.214L90.5296 140.028L86.4306 142.214L87.2133 137.584L83.897 134.305L88.4801 133.628L90.5296 129.413Z" fill="#C37FDB"/>
</g>
<defs>
<filter id="filter0_i_37_1561" x="0.922363" y="0.501709" width="126.025" height="213.588" filterUnits="userSpaceOnUse" color-interpolation-filters="sRGB">
<feFlood flood-opacity="0" result="BackgroundImageFix"/>
<feBlend mode="normal" in="SourceGraphic" in2="BackgroundImageFix" result="shape"/>
<feColorMatrix in="SourceAlpha" type="matrix" values="0 0 0 0 0 0 0 0 0 0 0 0 0 0 0 0 0 0 127 0" result="hardAlpha"/>
<feOffset dy="4"/>
<feGaussianBlur stdDeviation="2"/>
<feComposite in2="hardAlpha" operator="arithmetic" k2="-1" k3="1"/>
<feColorMatrix type="matrix" values="0 0 0 0 0 0 0 0 0 0 0 0 0 0 0 0 0 0 0.25 0"/>
<feBlend mode="normal" in2="shape" result="effect1_innerShadow_37_1561"/>
</filter>
<filter id="filter1_i_37_1561" x="7.52319" y="4.77246" width="115.282" height="201.329" filterUnits="userSpaceOnUse" color-interpolation-filters="sRGB">
<feFlood flood-opacity="0" result="BackgroundImageFix"/>
<feBlend mode="normal" in="SourceGraphic" in2="BackgroundImageFix" result="shape"/>
<feColorMatrix in="SourceAlpha" type="matrix" values="0 0 0 0 0 0 0 0 0 0 0 0 0 0 0 0 0 0 127 0" result="hardAlpha"/>
<feOffset dy="4"/>
<feGaussianBlur stdDeviation="2"/>
<feComposite in2="hardAlpha" operator="arithmetic" k2="-1" k3="1"/>
<feColorMatrix type="matrix" values="0 0 0 0 0 0 0 0 0 0 0 0 0 0 0 0 0 0 0.25 0"/>
<feBlend mode="normal" in2="shape" result="effect1_innerShadow_37_1561"/>
</filter>
<filter id="filter2_i_37_1561" x="42.0054" y="71.3959" width="47.6719" height="16.0536" filterUnits="userSpaceOnUse" color-interpolation-filters="sRGB">
<feFlood flood-opacity="0" result="BackgroundImageFix"/>
<feBlend mode="normal" in="SourceGraphic" in2="BackgroundImageFix" result="shape"/>
<feColorMatrix in="SourceAlpha" type="matrix" values="0 0 0 0 0 0 0 0 0 0 0 0 0 0 0 0 0 0 127 0" result="hardAlpha"/>
<feOffset dy="3"/>
<feGaussianBlur stdDeviation="2"/>
<feComposite in2="hardAlpha" operator="arithmetic" k2="-1" k3="1"/>
<feColorMatrix type="matrix" values="0 0 0 0 0 0 0 0 0 0 0 0 0 0 0 0 0 0 0.44 0"/>
<feBlend mode="normal" in2="shape" result="effect1_innerShadow_37_1561"/>
</filter>
<filter id="filter3_i_37_1561" x="42.6108" y="24.9073" width="49.1448" height="49.5009" filterUnits="userSpaceOnUse" color-interpolation-filters="sRGB">
<feFlood flood-opacity="0" result="BackgroundImageFix"/>
<feBlend mode="normal" in="SourceGraphic" in2="BackgroundImageFix" result="shape"/>
<feColorMatrix in="SourceAlpha" type="matrix" values="0 0 0 0 0 0 0 0 0 0 0 0 0 0 0 0 0 0 127 0" result="hardAlpha"/>
<feOffset dy="3"/>
<feGaussianBlur stdDeviation="2"/>
<feComposite in2="hardAlpha" operator="arithmetic" k2="-1" k3="1"/>
<feColorMatrix type="matrix" values="0 0 0 0 0 0 0 0 0 0 0 0 0 0 0 0 0 0 0.44 0"/>
<feBlend mode="normal" in2="shape" result="effect1_innerShadow_37_1561"/>
</filter>
<filter id="filter4_i_37_1561" x="60.7349" y="48.2244" width="10.9202" height="35.31" filterUnits="userSpaceOnUse" color-interpolation-filters="sRGB">
<feFlood flood-opacity="0" result="BackgroundImageFix"/>
<feBlend mode="normal" in="SourceGraphic" in2="BackgroundImageFix" result="shape"/>
<feColorMatrix in="SourceAlpha" type="matrix" values="0 0 0 0 0 0 0 0 0 0 0 0 0 0 0 0 0 0 127 0" result="hardAlpha"/>
<feOffset dy="3"/>
<feGaussianBlur stdDeviation="2"/>
<feComposite in2="hardAlpha" operator="arithmetic" k2="-1" k3="1"/>
<feColorMatrix type="matrix" values="0 0 0 0 0 0 0 0 0 0 0 0 0 0 0 0 0 0 0.44 0"/>
<feBlend mode="normal" in2="shape" result="effect1_innerShadow_37_1561"/>
</filter>
<filter id="filter5_i_37_1561" x="60.7349" y="48.2214" width="10.9202" height="24.4508" filterUnits="userSpaceOnUse" color-interpolation-filters="sRGB">
<feFlood flood-opacity="0" result="BackgroundImageFix"/>
<feBlend mode="normal" in="SourceGraphic" in2="BackgroundImageFix" result="shape"/>
<feColorMatrix in="SourceAlpha" type="matrix" values="0 0 0 0 0 0 0 0 0 0 0 0 0 0 0 0 0 0 127 0" result="hardAlpha"/>
<feOffset dy="3"/>
<feGaussianBlur stdDeviation="2"/>
<feComposite in2="hardAlpha" operator="arithmetic" k2="-1" k3="1"/>
<feColorMatrix type="matrix" values="0 0 0 0 0 0 0 0 0 0 0 0 0 0 0 0 0 0 0.44 0"/>
<feBlend mode="normal" in2="shape" result="effect1_innerShadow_37_1561"/>
</filter>
<filter id="filter6_i_37_1561" x="54.4819" y="32.2267" width="23.4229" height="35.3837" filterUnits="userSpaceOnUse" color-interpolation-filters="sRGB">
<feFlood flood-opacity="0" result="BackgroundImageFix"/>
<feBlend mode="normal" in="SourceGraphic" in2="BackgroundImageFix" result="shape"/>
<feColorMatrix in="SourceAlpha" type="matrix" values="0 0 0 0 0 0 0 0 0 0 0 0 0 0 0 0 0 0 127 0" result="hardAlpha"/>
<feOffset dy="3"/>
<feGaussianBlur stdDeviation="2"/>
<feComposite in2="hardAlpha" operator="arithmetic" k2="-1" k3="1"/>
<feColorMatrix type="matrix" values="0 0 0 0 0 0 0 0 0 0 0 0 0 0 0 0 0 0 0.44 0"/>
<feBlend mode="normal" in2="shape" result="effect1_innerShadow_37_1561"/>
</filter>
<filter id="filter7_i_37_1561" x="53.3369" y="29.139" width="25.2642" height="21.2765" filterUnits="userSpaceOnUse" color-interpolation-filters="sRGB">
<feFlood flood-opacity="0" result="BackgroundImageFix"/>
<feBlend mode="normal" in="SourceGraphic" in2="BackgroundImageFix" result="shape"/>
<feColorMatrix in="SourceAlpha" type="matrix" values="0 0 0 0 0 0 0 0 0 0 0 0 0 0 0 0 0 0 127 0" result="hardAlpha"/>
<feOffset dy="3"/>
<feGaussianBlur stdDeviation="2"/>
<feComposite in2="hardAlpha" operator="arithmetic" k2="-1" k3="1"/>
<feColorMatrix type="matrix" values="0 0 0 0 0 0 0 0 0 0 0 0 0 0 0 0 0 0 0.44 0"/>
<feBlend mode="normal" in2="shape" result="effect1_innerShadow_37_1561"/>
</filter>
<filter id="filter8_i_37_1561" x="49.4851" y="45.0433" width="6.83667" height="11.8921" filterUnits="userSpaceOnUse" color-interpolation-filters="sRGB">
<feFlood flood-opacity="0" result="BackgroundImageFix"/>
<feBlend mode="normal" in="SourceGraphic" in2="BackgroundImageFix" result="shape"/>
<feColorMatrix in="SourceAlpha" type="matrix" values="0 0 0 0 0 0 0 0 0 0 0 0 0 0 0 0 0 0 127 0" result="hardAlpha"/>
<feOffset dy="3"/>
<feGaussianBlur stdDeviation="2"/>
<feComposite in2="hardAlpha" operator="arithmetic" k2="-1" k3="1"/>
<feColorMatrix type="matrix" values="0 0 0 0 0 0 0 0 0 0 0 0 0 0 0 0 0 0 0.44 0"/>
<feBlend mode="normal" in2="shape" result="effect1_innerShadow_37_1561"/>
</filter>
<filter id="filter9_i_37_1561" x="75.5439" y="45.0623" width="6.83716" height="11.9065" filterUnits="userSpaceOnUse" color-interpolation-filters="sRGB">
<feFlood flood-opacity="0" result="BackgroundImageFix"/>
<feBlend mode="normal" in="SourceGraphic" in2="BackgroundImageFix" result="shape"/>
<feColorMatrix in="SourceAlpha" type="matrix" values="0 0 0 0 0 0 0 0 0 0 0 0 0 0 0 0 0 0 127 0" result="hardAlpha"/>
<feOffset dy="3"/>
<feGaussianBlur stdDeviation="2"/>
<feComposite in2="hardAlpha" operator="arithmetic" k2="-1" k3="1"/>
<feColorMatrix type="matrix" values="0 0 0 0 0 0 0 0 0 0 0 0 0 0 0 0 0 0 0.44 0"/>
<feBlend mode="normal" in2="shape" result="effect1_innerShadow_37_1561"/>
</filter>
<filter id="filter10_i_37_1561" x="61.7898" y="57.2012" width="8.80688" height="5.59128" filterUnits="userSpaceOnUse" color-interpolation-filters="sRGB">
<feFlood flood-opacity="0" result="BackgroundImageFix"/>
<feBlend mode="normal" in="SourceGraphic" in2="BackgroundImageFix" result="shape"/>
<feColorMatrix in="SourceAlpha" type="matrix" values="0 0 0 0 0 0 0 0 0 0 0 0 0 0 0 0 0 0 127 0" result="hardAlpha"/>
<feOffset dy="3"/>
<feGaussianBlur stdDeviation="2"/>
<feComposite in2="hardAlpha" operator="arithmetic" k2="-1" k3="1"/>
<feColorMatrix type="matrix" values="0 0 0 0 0 0 0 0 0 0 0 0 0 0 0 0 0 0 0.44 0"/>
<feBlend mode="normal" in2="shape" result="effect1_innerShadow_37_1561"/>
</filter>
<filter id="filter11_i_37_1561" x="47.2273" y="102.609" width="36.2507" height="10.9797" filterUnits="userSpaceOnUse" color-interpolation-filters="sRGB">
<feFlood flood-opacity="0" result="BackgroundImageFix"/>
<feBlend mode="normal" in="SourceGraphic" in2="BackgroundImageFix" result="shape"/>
<feColorMatrix in="SourceAlpha" type="matrix" values="0 0 0 0 0 0 0 0 0 0 0 0 0 0 0 0 0 0 127 0" result="hardAlpha"/>
<feOffset dy="4"/>
<feGaussianBlur stdDeviation="2"/>
<feComposite in2="hardAlpha" operator="arithmetic" k2="-1" k3="1"/>
<feColorMatrix type="matrix" values="0 0 0 0 0 0 0 0 0 0 0 0 0 0 0 0 0 0 0.25 0"/>
<feBlend mode="normal" in2="shape" result="effect1_innerShadow_37_1561"/>
</filter>
<filter id="filter12_i_37_1561" x="41.8008" y="113.33" width="47.0923" height="10.9797" filterUnits="userSpaceOnUse" color-interpolation-filters="sRGB">
<feFlood flood-opacity="0" result="BackgroundImageFix"/>
<feBlend mode="normal" in="SourceGraphic" in2="BackgroundImageFix" result="shape"/>
<feColorMatrix in="SourceAlpha" type="matrix" values="0 0 0 0 0 0 0 0 0 0 0 0 0 0 0 0 0 0 127 0" result="hardAlpha"/>
<feOffset dy="4"/>
<feGaussianBlur stdDeviation="2"/>
<feComposite in2="hardAlpha" operator="arithmetic" k2="-1" k3="1"/>
<feColorMatrix type="matrix" values="0 0 0 0 0 0 0 0 0 0 0 0 0 0 0 0 0 0 0.25 0"/>
<feBlend mode="normal" in2="shape" result="effect1_innerShadow_37_1561"/>
</filter>
<filter id="filter13_i_37_1561" x="14.2781" y="154.811" width="102.137" height="8.05017" filterUnits="userSpaceOnUse" color-interpolation-filters="sRGB">
<feFlood flood-opacity="0" result="BackgroundImageFix"/>
<feBlend mode="normal" in="SourceGraphic" in2="BackgroundImageFix" result="shape"/>
<feColorMatrix in="SourceAlpha" type="matrix" values="0 0 0 0 0 0 0 0 0 0 0 0 0 0 0 0 0 0 127 0" result="hardAlpha"/>
<feOffset dy="4"/>
<feGaussianBlur stdDeviation="2"/>
<feComposite in2="hardAlpha" operator="arithmetic" k2="-1" k3="1"/>
<feColorMatrix type="matrix" values="0 0 0 0 0 0 0 0 0 0 0 0 0 0 0 0 0 0 0.25 0"/>
<feBlend mode="normal" in2="shape" result="effect1_innerShadow_37_1561"/>
</filter>
<filter id="filter14_i_37_1561" x="14.2781" y="164.223" width="102.137" height="8.05017" filterUnits="userSpaceOnUse" color-interpolation-filters="sRGB">
<feFlood flood-opacity="0" result="BackgroundImageFix"/>
<feBlend mode="normal" in="SourceGraphic" in2="BackgroundImageFix" result="shape"/>
<feColorMatrix in="SourceAlpha" type="matrix" values="0 0 0 0 0 0 0 0 0 0 0 0 0 0 0 0 0 0 127 0" result="hardAlpha"/>
<feOffset dy="4"/>
<feGaussianBlur stdDeviation="2"/>
<feComposite in2="hardAlpha" operator="arithmetic" k2="-1" k3="1"/>
<feColorMatrix type="matrix" values="0 0 0 0 0 0 0 0 0 0 0 0 0 0 0 0 0 0 0.25 0"/>
<feBlend mode="normal" in2="shape" result="effect1_innerShadow_37_1561"/>
</filter>
<filter id="filter15_i_37_1561" x="14.2781" y="173.636" width="102.137" height="8.05017" filterUnits="userSpaceOnUse" color-interpolation-filters="sRGB">
<feFlood flood-opacity="0" result="BackgroundImageFix"/>
<feBlend mode="normal" in="SourceGraphic" in2="BackgroundImageFix" result="shape"/>
<feColorMatrix in="SourceAlpha" type="matrix" values="0 0 0 0 0 0 0 0 0 0 0 0 0 0 0 0 0 0 127 0" result="hardAlpha"/>
<feOffset dy="4"/>
<feGaussianBlur stdDeviation="2"/>
<feComposite in2="hardAlpha" operator="arithmetic" k2="-1" k3="1"/>
<feColorMatrix type="matrix" values="0 0 0 0 0 0 0 0 0 0 0 0 0 0 0 0 0 0 0.25 0"/>
<feBlend mode="normal" in2="shape" result="effect1_innerShadow_37_1561"/>
</filter>
<filter id="filter16_i_37_1561" x="26.3862" y="12.7934" width="77.9099" height="77.4355" filterUnits="userSpaceOnUse" color-interpolation-filters="sRGB">
<feFlood flood-opacity="0" result="BackgroundImageFix"/>
<feBlend mode="normal" in="SourceGraphic" in2="BackgroundImageFix" result="shape"/>
<feColorMatrix in="SourceAlpha" type="matrix" values="0 0 0 0 0 0 0 0 0 0 0 0 0 0 0 0 0 0 127 0" result="hardAlpha"/>
<feOffset dy="4"/>
<feGaussianBlur stdDeviation="2"/>
<feComposite in2="hardAlpha" operator="arithmetic" k2="-1" k3="1"/>
<feColorMatrix type="matrix" values="0 0 0 0 0 0 0 0 0 0 0 0 0 0 0 0 0 0 0.25 0"/>
<feBlend mode="normal" in2="shape" result="effect1_innerShadow_37_1561"/>
</filter>
<filter id="filter17_i_37_1561" x="33.5317" y="129.413" width="13.2651" height="16.8006" filterUnits="userSpaceOnUse" color-interpolation-filters="sRGB">
<feFlood flood-opacity="0" result="BackgroundImageFix"/>
<feBlend mode="normal" in="SourceGraphic" in2="BackgroundImageFix" result="shape"/>
<feColorMatrix in="SourceAlpha" type="matrix" values="0 0 0 0 0 0 0 0 0 0 0 0 0 0 0 0 0 0 127 0" result="hardAlpha"/>
<feOffset dy="4"/>
<feGaussianBlur stdDeviation="2"/>
<feComposite in2="hardAlpha" operator="arithmetic" k2="-1" k3="1"/>
<feColorMatrix type="matrix" values="0 0 0 0 0 0 0 0 0 0 0 0 0 0 0 0 0 0 0.25 0"/>
<feBlend mode="normal" in2="shape" result="effect1_innerShadow_37_1561"/>
</filter>
<filter id="filter18_i_37_1561" x="50.3191" y="129.413" width="13.2651" height="16.8006" filterUnits="userSpaceOnUse" color-interpolation-filters="sRGB">
<feFlood flood-opacity="0" result="BackgroundImageFix"/>
<feBlend mode="normal" in="SourceGraphic" in2="BackgroundImageFix" result="shape"/>
<feColorMatrix in="SourceAlpha" type="matrix" values="0 0 0 0 0 0 0 0 0 0 0 0 0 0 0 0 0 0 127 0" result="hardAlpha"/>
<feOffset dy="4"/>
<feGaussianBlur stdDeviation="2"/>
<feComposite in2="hardAlpha" operator="arithmetic" k2="-1" k3="1"/>
<feColorMatrix type="matrix" values="0 0 0 0 0 0 0 0 0 0 0 0 0 0 0 0 0 0 0.25 0"/>
<feBlend mode="normal" in2="shape" result="effect1_innerShadow_37_1561"/>
</filter>
<filter id="filter19_i_37_1561" x="67.1094" y="129.413" width="13.2651" height="16.8006" filterUnits="userSpaceOnUse" color-interpolation-filters="sRGB">
<feFlood flood-opacity="0" result="BackgroundImageFix"/>
<feBlend mode="normal" in="SourceGraphic" in2="BackgroundImageFix" result="shape"/>
<feColorMatrix in="SourceAlpha" type="matrix" values="0 0 0 0 0 0 0 0 0 0 0 0 0 0 0 0 0 0 127 0" result="hardAlpha"/>
<feOffset dy="4"/>
<feGaussianBlur stdDeviation="2"/>
<feComposite in2="hardAlpha" operator="arithmetic" k2="-1" k3="1"/>
<feColorMatrix type="matrix" values="0 0 0 0 0 0 0 0 0 0 0 0 0 0 0 0 0 0 0.25 0"/>
<feBlend mode="normal" in2="shape" result="effect1_innerShadow_37_1561"/>
</filter>
<filter id="filter20_i_37_1561" x="83.897" y="129.413" width="13.2651" height="16.8006" filterUnits="userSpaceOnUse" color-interpolation-filters="sRGB">
<feFlood flood-opacity="0" result="BackgroundImageFix"/>
<feBlend mode="normal" in="SourceGraphic" in2="BackgroundImageFix" result="shape"/>
<feColorMatrix in="SourceAlpha" type="matrix" values="0 0 0 0 0 0 0 0 0 0 0 0 0 0 0 0 0 0 127 0" result="hardAlpha"/>
<feOffset dy="4"/>
<feGaussianBlur stdDeviation="2"/>
<feComposite in2="hardAlpha" operator="arithmetic" k2="-1" k3="1"/>
<feColorMatrix type="matrix" values="0 0 0 0 0 0 0 0 0 0 0 0 0 0 0 0 0 0 0.25 0"/>
<feBlend mode="normal" in2="shape" result="effect1_innerShadow_37_1561"/>
</filter>
</defs>
</svg>
