<svg width="152" height="151" viewBox="0 0 152 151" fill="none" xmlns="http://www.w3.org/2000/svg">
<g filter="url(#filter0_d_37_1499)">
<path d="M139.876 78.7066C140.163 76.1167 140.308 73.5125 140.308 70.9063C140.308 69.514 140.266 68.1326 140.183 66.762L127.48 62.5912C126.712 57.251 125.197 52.0494 122.981 47.1435L131.405 36.6136C129.465 33.1453 127.234 29.8526 124.738 26.772L112.029 30.9781C108.313 27.123 104.079 23.8206 99.4512 21.1688L100.173 7.6212C96.5965 5.96917 92.8856 4.63469 89.0819 3.63278L81.2347 14.6185C75.9929 13.7228 70.6528 13.5812 65.3721 14.198L58.1075 2.80334C54.2569 3.60084 50.4812 4.73351 46.8222 6.18879L46.8396 19.7541C42.0806 22.1543 37.6793 25.2239 33.7657 28.8721L21.3006 23.9925C18.6444 26.9352 16.2421 30.1038 14.1201 33.4635L21.9876 44.4198C19.517 49.1992 17.7307 54.3117 16.6827 59.6028L3.77983 63.0853C3.4937 65.6763 3.3495 68.2814 3.3479 70.8886C3.3479 72.2799 3.39428 73.6623 3.47255 75.0329L16.1783 79.2037C16.9458 84.543 18.4608 89.7437 20.6773 94.6485L12.2532 105.167C14.1936 108.636 16.4243 111.929 18.9206 115.011L31.6264 110.802C35.3439 114.657 39.5794 117.961 44.2075 120.614L43.4827 134.144C47.0596 135.798 50.7716 137.133 54.5767 138.133L62.4355 127.179C65.5427 127.712 68.6883 127.979 71.8395 127.979C73.9976 127.978 76.154 127.852 78.2981 127.603L85.5627 138.994C89.4138 138.2 93.1897 137.068 96.848 135.612V122.044C101.608 119.645 106.009 116.575 109.922 112.926L122.387 117.805C125.042 114.864 127.444 111.696 129.565 108.337L121.7 97.378C124.16 92.6003 125.936 87.4907 126.973 82.2038L139.876 78.7066ZM71.825 98.1604C66.5124 98.1604 61.3191 96.562 56.9019 93.5673C52.4846 90.5725 49.0418 86.316 47.0087 81.336C44.9757 76.3559 44.4437 70.876 45.4802 65.5893C46.5166 60.3025 49.0749 55.4462 52.8314 51.6347C56.588 47.8231 61.3742 45.2274 66.5847 44.1758C71.7952 43.1242 77.196 43.6639 82.1042 45.7267C87.0124 47.7895 91.2075 51.2828 94.159 55.7647C97.1105 60.2466 98.6859 65.5159 98.6859 70.9063C98.6851 78.1343 95.8549 85.066 90.8177 90.177C85.7804 95.2879 78.9487 98.1596 71.825 98.1604Z" fill="#C37FDB"/>
</g>
<defs>
<filter id="filter0_d_37_1499" x="0.3479" y="0.803345" width="150.96" height="150.191" filterUnits="userSpaceOnUse" color-interpolation-filters="sRGB">
<feFlood flood-opacity="0" result="BackgroundImageFix"/>
<feColorMatrix in="SourceAlpha" type="matrix" values="0 0 0 0 0 0 0 0 0 0 0 0 0 0 0 0 0 0 127 0" result="hardAlpha"/>
<feOffset dx="4" dy="5"/>
<feGaussianBlur stdDeviation="3.5"/>
<feComposite in2="hardAlpha" operator="out"/>
<feColorMatrix type="matrix" values="0 0 0 0 0 0 0 0 0 0 0 0 0 0 0 0 0 0 0.55 0"/>
<feBlend mode="normal" in2="BackgroundImageFix" result="effect1_dropShadow_37_1499"/>
<feBlend mode="normal" in="SourceGraphic" in2="effect1_dropShadow_37_1499" result="shape"/>
</filter>
</defs>
</svg>
