<svg width="116" height="117" viewBox="0 0 116 117" fill="none" xmlns="http://www.w3.org/2000/svg">
<g filter="url(#filter0_d_113_2)">
<path d="M92.7688 51.5021C92.7688 50.7432 92.7485 49.9883 92.7079 49.2373L102.228 41.4811C101.491 37.6624 100.331 33.9405 98.7694 30.3865L86.4782 29.4423C83.6832 24.9709 80.071 21.0832 75.8364 17.9889L75.7959 5.55893C72.3374 3.71671 68.6809 2.28562 64.899 1.29404L56.4923 10.468C51.4273 9.90728 46.3036 10.3143 41.3863 11.668L31.7534 3.92943C28.1455 5.52328 24.7311 7.53474 21.5783 9.92381L23.4017 22.2449C19.7834 25.8974 16.8727 30.2065 14.821 34.9484L2.83712 37.7691C1.80653 41.5945 1.21224 45.5273 1.06592 49.4902L11.6207 55.667C12.1451 60.9607 13.6791 66.1004 16.1371 70.8L10.8525 82.0446C13.1175 85.1879 15.7224 88.0638 18.6186 90.6185L29.9242 86.1212C34.453 89.1196 39.5285 91.1659 44.8504 92.1391L50.1843 103.284C50.8192 103.307 51.457 103.325 52.1005 103.325C55.2397 103.322 58.372 103.026 61.4581 102.443L65.0613 90.6361C70.243 88.8662 75.0191 86.053 79.1034 82.3652L90.9888 85.077C93.4396 82.1589 95.5649 78.9747 97.3258 75.5825L90.4293 65.3056C91.9803 60.8737 92.7716 56.205 92.7688 51.5021ZM51.6425 69.6881C48.2534 69.6881 44.9406 68.6685 42.1227 66.7581C39.3048 64.8477 37.1085 62.1323 35.8116 58.9555C34.5147 55.7786 34.1754 52.2828 34.8365 48.9103C35.4977 45.5377 37.1296 42.4398 39.526 40.0083C41.9224 37.5768 44.9757 35.921 48.2996 35.2501C51.6235 34.5793 55.0688 34.9236 58.1998 36.2395C61.3309 37.5554 64.007 39.7838 65.8899 42.6429C67.7727 45.5021 68.7777 48.8635 68.7777 52.3021C68.7777 54.5853 68.3345 56.8461 67.4734 58.9555C66.6122 61.0648 65.3501 62.9814 63.7589 64.5959C62.1678 66.2103 60.2788 67.491 58.1998 68.3647C56.1209 69.2385 53.8927 69.6881 51.6425 69.6881Z" fill="#C37FDB"/>
</g>
<defs>
<filter id="filter0_d_113_2" x="0.065918" y="0.294037" width="115.162" height="116.031" filterUnits="userSpaceOnUse" color-interpolation-filters="sRGB">
<feFlood flood-opacity="0" result="BackgroundImageFix"/>
<feColorMatrix in="SourceAlpha" type="matrix" values="0 0 0 0 0 0 0 0 0 0 0 0 0 0 0 0 0 0 127 0" result="hardAlpha"/>
<feOffset dx="6" dy="6"/>
<feGaussianBlur stdDeviation="3.5"/>
<feComposite in2="hardAlpha" operator="out"/>
<feColorMatrix type="matrix" values="0 0 0 0 0 0 0 0 0 0 0 0 0 0 0 0 0 0 0.56 0"/>
<feBlend mode="normal" in2="BackgroundImageFix" result="effect1_dropShadow_113_2"/>
<feBlend mode="normal" in="SourceGraphic" in2="effect1_dropShadow_113_2" result="shape"/>
</filter>
</defs>
</svg>
