<svg width="20" height="14" viewBox="0 0 20 14" fill="none" xmlns="http://www.w3.org/2000/svg">
<path d="M17.5708 13.1166C17.2022 13.116 16.8477 12.973 16.5794 12.7166C12.1312 8.45327 6.86722 5.16257 1.11391 3.04853C0.756553 2.9125 0.466487 2.63894 0.306705 2.28724C0.146922 1.93555 0.130313 1.53412 0.260472 1.17007C0.390631 0.806025 0.657053 0.508744 1.00191 0.342796C1.34677 0.176848 1.74222 0.155612 2.10241 0.283697C8.22712 2.53462 13.8306 6.03861 18.5651 10.5783C18.7776 10.7801 18.9252 11.0421 18.9889 11.3303C19.0525 11.6185 19.0291 11.9194 18.9218 12.1939C18.8146 12.4684 18.6283 12.7039 18.3873 12.8695C18.1464 13.0351 17.8618 13.1232 17.5708 13.1225V13.1166Z" fill="white"/>
</svg>
