<svg width="21" height="6" viewBox="0 0 21 6" fill="none" xmlns="http://www.w3.org/2000/svg">
<path d="M2.27154 5.91039C1.91775 5.91071 1.57606 5.77974 1.31086 5.54215C1.04566 5.30455 0.875284 4.97675 0.831798 4.62051C0.788311 4.26427 0.874709 3.90419 1.07476 3.60813C1.27482 3.31207 1.57471 3.10047 1.91788 3.01321C7.40775 1.61204 13.0472 0.904691 18.7081 0.907233C19.0925 0.907233 19.4612 1.06218 19.733 1.33798C20.0048 1.61378 20.1575 1.98784 20.1575 2.37788C20.1575 2.76793 20.0048 3.14199 19.733 3.41779C19.4612 3.69359 19.0925 3.84854 18.7081 3.84854C13.2857 3.84621 7.88375 4.52393 2.62519 5.86627C2.50946 5.89525 2.39074 5.91006 2.27154 5.91039Z" fill="white"/>
</svg>
