<svg width="20" height="70" viewBox="0 0 20 70" fill="none" xmlns="http://www.w3.org/2000/svg">
<path d="M2.20377 69.1798C1.92836 69.1796 1.65867 69.0999 1.42629 68.9499C1.19392 68.7999 1.00847 68.5859 0.891672 68.3328C0.774871 68.0797 0.731563 67.7981 0.766793 67.521C0.802023 67.2438 0.914351 66.9826 1.09062 66.7679C8.27465 57.9828 13.1113 47.4708 15.1358 36.2418C17.1604 25.0128 16.3048 13.4442 12.6513 2.64749C12.5834 2.46358 12.5524 2.26773 12.5603 2.0715C12.5682 1.87526 12.6147 1.6826 12.6971 1.5049C12.7796 1.32721 12.8963 1.16807 13.0403 1.03688C13.1844 0.905685 13.3528 0.805101 13.5358 0.741052C13.7188 0.677002 13.9126 0.650783 14.1057 0.663955C14.2989 0.677128 14.4874 0.729422 14.6603 0.817744C14.8332 0.906065 14.9869 1.02862 15.1124 1.1782C15.2378 1.32777 15.3325 1.50133 15.3907 1.68863C19.2064 12.9626 20.1002 25.0428 17.9863 36.7684C15.8724 48.4941 10.8218 59.471 3.31983 68.6445C3.18411 68.8115 3.0137 68.9461 2.82077 69.0387C2.62784 69.1312 2.41717 69.1794 2.20377 69.1798Z" fill="white"/>
</svg>
