<svg width="14" height="49" viewBox="0 0 14 49" fill="none" xmlns="http://www.w3.org/2000/svg">
<path d="M1.46087 48.44C1.18545 48.4399 0.915762 48.3602 0.683388 48.2102C0.451014 48.0602 0.265569 47.8461 0.148767 47.5931C0.0319663 47.34 -0.0113595 47.0584 0.0238705 46.7812C0.0591005 46.5041 0.171429 46.2429 0.347693 46.0281C5.27239 40.0024 8.58803 32.7935 9.9764 25.0934C11.3648 17.3932 10.7793 9.46016 8.27611 2.05566C8.16239 1.69013 8.19382 1.29399 8.36371 0.951632C8.53359 0.609269 8.82851 0.347735 9.18563 0.222733C9.54276 0.0977309 9.93387 0.119145 10.2757 0.282406C10.6175 0.445668 10.8829 0.737873 11.0155 1.09679C13.6817 8.97943 14.3058 17.4252 12.8281 25.6231C11.3503 33.821 7.82031 41.4958 2.57692 47.9106C2.44064 48.0766 2.26998 48.2101 2.07709 48.3016C1.88419 48.3931 1.6738 48.4404 1.46087 48.44Z" fill="white"/>
</svg>
