<svg width="27" height="19" viewBox="0 0 27 19" fill="none" xmlns="http://www.w3.org/2000/svg">
<path d="M24.5884 18.311C24.2198 18.3104 23.8653 18.1674 23.5969 17.911C17.1107 11.6948 9.43544 6.89646 1.04667 3.81332C0.867752 3.74727 0.703401 3.64611 0.56301 3.51561C0.422619 3.38512 0.308916 3.22784 0.22843 3.05277C0.0658807 2.6992 0.0484455 2.29458 0.179915 1.92794C0.311385 1.56131 0.580998 1.26267 0.929474 1.09774C1.27795 0.932816 1.67672 0.915099 2.03806 1.04849C10.7976 4.27084 18.8114 9.28446 25.5827 15.7785C25.7941 15.9806 25.9408 16.2424 26.0039 16.53C26.0669 16.8177 26.0433 17.1179 25.9361 17.3918C25.829 17.6657 25.6432 17.9006 25.4029 18.0661C25.1626 18.2315 24.8788 18.32 24.5884 18.3198V18.311Z" fill="white"/>
</svg>
