<svg width="30" height="28" viewBox="0 0 30 28" fill="none" xmlns="http://www.w3.org/2000/svg">
<path fill-rule="evenodd" clip-rule="evenodd" d="M28.3534 19.8762C27.597 19.5076 23.9905 17.7193 23.3152 17.4736C22.6398 17.2278 22.14 17.105 21.6538 17.8421C21.1675 18.5793 19.7357 20.2447 19.317 20.7362C18.8982 21.2276 18.4525 21.2822 17.7096 20.9137C15.5349 20.0512 13.5276 18.8081 11.7798 17.2415C10.1813 15.7566 8.81501 14.0351 7.72755 12.1359C7.30882 11.3988 7.72756 11.0029 8.05174 10.6343C8.37592 10.2657 8.78115 9.76062 9.15936 9.26918C9.26742 9.14632 9.34846 9.02347 9.42951 8.91426C9.60709 8.63211 9.76072 8.33527 9.88875 8.02693C10.0002 7.83185 10.0589 7.61057 10.0589 7.38532C10.0589 7.16007 10.0002 6.93878 9.88875 6.74371C9.71316 6.37513 8.22735 2.73025 7.61951 1.28323C7.01168 -0.163801 6.39032 0.0682706 5.95808 0.0682706C5.52584 0.0682706 5.03959 2.08301e-05 4.53981 2.08301e-05C4.16869 0.00829697 3.80322 0.0937832 3.46624 0.251148C3.12926 0.408513 2.82798 0.634378 2.58122 0.914649C1.75022 1.70813 1.0917 2.66771 0.647539 3.73234C0.203378 4.79698 -0.0166851 5.94338 0.00130943 7.09864C0.0114879 7.94959 0.138776 8.79497 0.379516 9.61046C0.974641 11.4644 1.8892 13.1974 3.08101 14.7297C3.44571 15.2211 8.17331 22.9204 15.6564 25.8963C23.1396 28.8723 23.1666 27.8621 24.5173 27.7256C25.8681 27.5891 28.8802 25.951 29.4746 24.2173C29.9572 23.1164 30.1121 21.8973 29.9203 20.7089C29.5691 20.4086 29.0963 20.2448 28.3534 19.8762Z" fill="#45F4FF"/>
</svg>
