<svg width="16" height="5" viewBox="0 0 16 5" fill="none" xmlns="http://www.w3.org/2000/svg">
<path d="M2.40654 4.75736C2.05276 4.75768 1.71107 4.62672 1.44587 4.38912C1.18067 4.15153 1.01029 3.82373 0.966806 3.46749C0.92332 3.11125 1.00974 2.75119 1.20979 2.45512C1.40984 2.15906 1.7097 1.94745 2.05287 1.86019C5.89172 0.881264 9.83506 0.387306 13.7933 0.389534C14.1777 0.389534 14.5464 0.54448 14.8182 0.820281C15.09 1.09608 15.2427 1.47014 15.2427 1.86019C15.2427 2.25023 15.09 2.62429 14.8182 2.90009C14.5464 3.17589 14.1777 3.33084 13.7933 3.33084C10.0745 3.32862 6.36962 3.79293 2.7631 4.71323C2.64667 4.74378 2.52679 4.75862 2.40654 4.75736Z" fill="white"/>
</svg>
