<svg width="211" height="209" viewBox="0 0 211 209" fill="none" xmlns="http://www.w3.org/2000/svg">
<g filter="url(#filter0_d_37_1495)">
<path d="M197.559 112.566C197.975 108.827 198.184 105.067 198.186 101.304C198.186 99.2953 198.119 97.3011 198.006 95.3216L179.662 89.3096C178.553 81.6011 176.366 74.0926 173.165 67.0116L185.341 51.8256C182.537 46.8171 179.314 42.0621 175.708 37.6133L157.361 43.6871C151.994 38.1185 145.879 33.3467 139.196 29.5129L140.24 9.95618C135.077 7.57008 129.719 5.64316 124.227 4.19711L112.898 20.0596C105.331 18.7641 97.6208 18.5591 89.9969 19.4507L79.5088 3C73.9484 4.14813 68.4966 5.78274 63.2143 7.8855L63.2374 27.4716C56.3657 30.9389 50.0114 35.3742 44.3629 40.6457L26.3667 33.5866C22.5296 37.8389 19.0595 42.4177 15.9946 47.2725L27.3524 63.0938C23.7855 69.9931 21.2075 77.3738 19.6964 85.0124L1.0683 90.042C0.652924 93.7813 0.443869 97.5412 0.442139 101.304C0.442139 103.313 0.508811 105.307 0.621867 107.287L18.9659 113.311C20.0747 121.019 22.2622 128.527 25.4623 135.609L13.287 150.795C16.0911 155.803 19.3139 160.558 22.92 165.007L41.2669 158.933C46.6339 164.497 52.748 169.265 59.4283 173.096L58.3847 192.652C63.5483 195.038 68.9061 196.965 74.3981 198.411L85.7355 182.549C93.3029 183.844 101.013 184.049 108.637 183.158L119.125 199.608C124.688 198.461 130.143 196.826 135.428 194.723L135.405 175.137C142.274 171.669 148.626 167.232 154.271 161.96L172.267 169.019C176.101 164.77 179.57 160.195 182.633 155.345L171.275 139.524C174.843 132.625 177.421 125.244 178.931 117.605L197.559 112.566ZM99.3139 140.65C91.6435 140.651 84.1451 138.343 77.7672 134.02C71.3892 129.696 66.4181 123.551 63.4825 116.361C60.5469 109.171 59.7786 101.259 61.2749 93.6255C62.7712 85.9923 66.4648 78.9807 71.8886 73.4775C77.3124 67.9743 84.2228 64.2267 91.7458 62.7085C99.2689 61.1903 107.067 61.9698 114.153 64.9484C121.24 67.9269 127.296 72.9708 131.557 79.4421C135.819 85.9135 138.093 93.5215 138.092 101.304C138.092 111.739 134.006 121.747 126.734 129.126C119.462 136.505 109.598 140.65 99.3139 140.65Z" fill="#C37FDB"/>
</g>
<defs>
<filter id="filter0_d_37_1495" x="0.442139" y="0" width="209.743" height="208.608" filterUnits="userSpaceOnUse" color-interpolation-filters="sRGB">
<feFlood flood-opacity="0" result="BackgroundImageFix"/>
<feColorMatrix in="SourceAlpha" type="matrix" values="0 0 0 0 0 0 0 0 0 0 0 0 0 0 0 0 0 0 127 0" result="hardAlpha"/>
<feOffset dx="6" dy="3"/>
<feGaussianBlur stdDeviation="3"/>
<feComposite in2="hardAlpha" operator="out"/>
<feColorMatrix type="matrix" values="0 0 0 0 0 0 0 0 0 0 0 0 0 0 0 0 0 0 0.5 0"/>
<feBlend mode="normal" in2="BackgroundImageFix" result="effect1_dropShadow_37_1495"/>
<feBlend mode="normal" in="SourceGraphic" in2="effect1_dropShadow_37_1495" result="shape"/>
</filter>
</defs>
</svg>
